<svg transform="scale(1)" version="1.1" id="zgi5LWQkNd" xmlns="http://www.w3.org/2000/svg"
  xmlns:xlink="http://www.w3.org/1999/xlink" x="0px" y="0px" viewBox="0 0 500 500" xml:space="preserve"
  class="pbimage_pbimage__wrapper__image__0LEis false">
  <title>Page Not Found 3</title>
  <style type="text/css">
    .st0 {
      fill: #FFFFFF;
    }

    .st1 {
      fill: currentColor;
    }

    .st2 {
      fill: #000005;
    }
  </style>
  <g id="screen">
    <rect class="st0" x="161.8" y="62" transform="matrix(0.14 -0.9901 0.9901 0.14 18.1471 459.036)" width="223.1"
      height="314.1" fill="#FFFFFF"></rect>
    <path class="st1" d="M412.1,349.7l-8.3-1.2l-22.6-3.2l-33.5-4.8l-40.9-5.8l-44.6-6.3L217,322l-42.1-6l-35.6-5l-25.6-3.6
		c-4-0.6-8.1-1.3-12.1-1.7l-0.5-0.1l3.1,3.4l3.1-22l7.5-52.8l9-63.9l7.8-55.2l2.6-18.1l0.8-5.7c0.3-1,0.4-2,0.4-3
		c0-0.1,0-0.2,0.1-0.4l-0.8,0.4l8.3,1.2l22.6,3.2l33.5,4.8l40.9,5.8l44.6,6.3l45.2,6.4l42.1,6l35.6,5l25.6,3.6c4,0.6,8,1.3,12.1,1.7
		l0.5,0.1l-3.1-3.4l-3.1,22L432,204l-9,63.9l-7.9,55.1c-1.3,8.9-2.8,17.8-3.8,26.7l-0.1,0.4c-0.2,1.6,3.7,4.4,3.9,2.9l3.1-22
		l7.5-52.8l9-63.9l7.8-55.2c1.3-8.9,2.8-17.8,3.8-26.7c0-0.1,0-0.2,0-0.4c0.2-1.5-1.8-3.2-3.1-3.4l-8.3-1.2l-22.6-3.2l-33.5-4.7
		l-40.9-5.8l-44.6-6.3l-45.2-6.4l-42.1-6l-35.6-5L145,86.5c-4-0.6-8.1-1.3-12.1-1.7l-0.5-0.1c-0.3-0.1-0.7,0.1-0.8,0.4l-3.1,22
		l-7.5,52.8l-9,63.9l-7.9,55.2c-1.3,8.9-2.8,17.8-3.8,26.7c0,0.1,0,0.2,0,0.4c-0.2,1.5,1.8,3.2,3.1,3.4l8.3,1.2l22.6,3.2l33.5,4.7
		l40.9,5.8l44.6,6.3l45.2,6.4l42.1,6l35.6,5l25.6,3.6c4,0.6,8,1.3,12.1,1.7l0.5,0.1c1.1,0.2,0.7-1.2,0.4-1.7
		C414.3,350.7,413.3,349.9,412.1,349.7z" fill="currentColor"></path>
    <rect class="st1" x="273.2" y="-34.7" transform="matrix(0.1402 -0.9901 0.9901 0.1402 125.5896 390.0161)"
      width="28.4" height="314.8" fill="currentColor"></rect>
    <path class="st1" d="M441.6,159.4l-0.5-0.1L129,115.1l4.1-29.1l0.5,0.1l312.2,44.2L441.6,159.4z M130.1,114.2l310.7,44l3.8-27.1
		L134,87.2L130.1,114.2z" fill="currentColor"></path>
    <path class="st1" d="M191.8,117.8l4.7,23.5l0.7,3.4c0.3,1.2,1.3,2.1,2.5,2.2l6.3,0.9l17.2,2.6l25.5,3.9l31,4.7l34,5.1l34.3,5.2
		l32.1,4.8l27,4.1l19.4,2.9c3.1,0.5,6.1,1,9.2,1.4c0.1,0,0.3,0,0.4,0.1c0.9,0.2,1.8-0.4,2-1.3c0-0.1,0-0.3,0-0.4
		c-0.3-1.2-1.3-2.1-2.5-2.2l-6.3-1L412,175l-25.5-3.9l-31-4.7l-34-5.1l-34.3-5.2l-32.1-4.8l-27-4.1l-19.4-2.9
		c-3.1-0.5-6.1-1-9.2-1.4l-0.4-0.1l2.5,2.3l-4.6-23.5l-0.7-3.4c-0.3-1.2-1.3-2.1-2.5-2.2C192.8,115.9,191.6,116.6,191.8,117.8
		L191.8,117.8z" fill="currentColor"></path>
    <circle class="st1" cx="142.5" cy="129.4" r="2.9" fill="currentColor"></circle>
    <path class="st1" d="M143,129.3c0,0.2-0.1,0.3-0.1,0.5L143,129.3c0,0.2-0.2,0.4-0.3,0.7l0.3-0.5c-0.2,0.2-0.4,0.4-0.6,0.6l0.5-0.4
		c-0.2,0.2-0.5,0.3-0.7,0.4l0.6-0.2c-0.2,0.1-0.4,0.2-0.7,0.2l0.6-0.1c-0.2,0-0.5,0-0.7,0l0.6,0.1c-0.2,0-0.5-0.1-0.7-0.1l0.6,0.2
		c-0.2-0.1-0.4-0.2-0.6-0.3l0.6,0.4c-0.2-0.1-0.4-0.3-0.5-0.4l0.4,0.5c-0.2-0.2-0.3-0.3-0.4-0.5l0.3,0.5c-0.1-0.2-0.2-0.5-0.3-0.7
		l0.2,0.6c-0.1-0.3-0.1-0.5-0.1-0.8v0.6c0-0.3,0.1-0.6,0.1-0.9l-0.2,0.6c0.1-0.3,0.2-0.5,0.4-0.8l-0.3,0.5c0.2-0.2,0.3-0.4,0.6-0.6
		l-0.5,0.4c0.2-0.2,0.5-0.3,0.7-0.4l-0.6,0.2c0.2-0.1,0.4-0.1,0.7-0.2l-0.6,0.1c0.2,0,0.5,0,0.7,0l-0.6-0.1c0.2,0,0.5,0.1,0.7,0.1
		l-0.6-0.2c0.2,0.1,0.4,0.2,0.6,0.3l-0.6-0.4c0.2,0.1,0.4,0.3,0.5,0.4l-0.4-0.5c0.2,0.2,0.3,0.4,0.4,0.6l-0.3-0.5
		C142.9,128.8,143,129,143,129.3l-0.1-0.6c0.1,0.3,0.1,0.5,0.1,0.8v-0.6L143,129.3c0,0.6,0.1,1.2,0.5,1.7c0.4,0.5,1,0.9,1.6,1.1
		c0.6,0.1,1.2,0,1.8-0.3c0.5-0.3,0.9-0.8,1-1.4c0.1-1,0-2-0.5-2.9c-0.5-1.1-1.4-2-2.5-2.6c-0.9-0.5-2-0.7-3.1-0.6
		c-0.7,0.1-1.3,0.3-1.9,0.5c-0.5,0.2-0.9,0.5-1.2,0.8c-1.5,1.4-1.9,3.6-1.1,5.5c0.9,2.1,3.1,3.5,5.4,3.4c2.5-0.1,4.5-1.9,4.9-4.3
		c0.1-1.3-0.8-2.5-2.1-2.7c-0.6-0.1-1.2-0.1-1.8,0.3C143.5,128.2,143.1,128.7,143,129.3z" fill="currentColor"></path>
    <circle class="st1" cx="162.8" cy="132.6" r="2.9" fill="currentColor"></circle>
    <path class="st1" d="M163.4,132c0,0.1,0,0.3-0.1,0.4L163.4,132c-0.1,0.6-0.4,1-0.8,1.4l0.2-0.2c-0.3,0.3-0.7,0.5-1.1,0.7l0.4-0.1
		c-0.3,0.1-0.6,0.1-0.9,0.1h0.5h-0.4c-0.3,0,0.2,0,0.2,0h-0.2c-0.1,0-0.4-0.1,0.1,0h0.1c-0.3-0.1,0.4,0.2,0.4,0.2l-0.2-0.1
		c-0.2-0.1,0.5,0.4,0.4,0.2l-0.1-0.1c-0.2-0.2,0.3,0.3,0.3,0.3c0,0-0.1-0.1-0.1-0.1c-0.1-0.1-0.2-0.2,0.1,0.1s0.1,0.1,0,0
		c-0.1-0.1-0.1-0.2-0.2-0.3l0.2,0.4c-0.1-0.3-0.2-0.5-0.3-0.8l0.1,0.4c-0.1-0.4,0-0.9,0.1-1.3l-0.1,0.3c0.1-0.5,0.4-0.9,0.8-1.3
		l-0.2,0.2c0.3-0.3,0.7-0.5,1.1-0.7l-0.4,0.1c0.3-0.1,0.6-0.1,0.9-0.1h-0.5c0.1,0,0.2,0,0.4,0c0.3,0-0.2,0-0.2-0.1h0.2
		c0.1,0,0.4,0.1-0.1,0s-0.2,0-0.1,0c0.3,0.1-0.4-0.2-0.4-0.2l0.2,0.1c0.2,0.1-0.5-0.4-0.4-0.2l0.1,0.1c0.2,0.2-0.3-0.3-0.3-0.3
		c0,0,0.1,0.1,0.1,0.1c0.1,0.1,0.2,0.2,0-0.1s-0.1-0.1,0,0s0.1,0.2,0.2,0.3l-0.2-0.4c0.1,0.3,0.2,0.5,0.3,0.8l-0.1-0.4
		C163.5,131.4,163.5,131.6,163.4,132c0.1,0.4,0.3,0.8,0.7,1.2c0.4,0.5,1,0.8,1.6,1.1c0.6,0.3,2.1,0.7,2.3-0.4c0.3-2.1-1.3-4-3.1-5
		c-1.1-0.7-2.5-1.1-3.8-1c-0.8,0.1-1.5,0.4-2.1,0.9c-0.6,0.5-1.1,1.3-1.2,2.1c-0.2,0.8-0.1,1.6,0.2,2.3c0.6,1.2,1.5,2.2,2.6,2.9
		c1,0.7,2.2,1,3.4,1.1c1,0,1.9-0.3,2.7-0.9c0.7-0.6,1.2-1.4,1.3-2.4c0.1-0.4-0.4-1-0.6-1.2c-0.4-0.5-1-0.8-1.6-1.1
		C165.1,131.4,163.6,131,163.4,132z" fill="currentColor"></path>
    <circle class="st1" cx="180" cy="134.1" r="2.9" fill="currentColor"></circle>
    <path class="st1" d="M181,133.1c0,0.3-0.1,0.6-0.2,0.8l0.1-0.3c-0.3,0.6-0.7,1.1-1.3,1.4l0.3-0.1c-0.4,0.2-0.9,0.3-1.4,0.3h0.4
		c-0.2,0-0.3,0-0.5-0.1c-0.1,0-0.4-0.1-0.1,0s0,0-0.1,0s-0.4-0.3,0.2,0.1c-0.1,0-0.1-0.1-0.2-0.1l0.4,0.2l-0.1-0.1
		c0.1,0,0.6,0.5,0.3,0.2s0.5,0.6,0.2,0.3s0.4,0.6,0.2,0.2s-0.1-0.4,0.1,0.2l-0.1-0.2c-0.1-0.3,0,0.1,0,0.1s0-0.2-0.1-0.2
		c0-0.2-0.1-0.4-0.1-0.6v0.4c0-0.5,0.1-0.9,0.3-1.3l-0.1,0.3c0.3-0.6,0.7-1.1,1.3-1.4l-0.3,0.1c0.4-0.2,0.9-0.3,1.4-0.3h-0.4
		c0.2,0,0.3,0,0.5,0c0.1,0,0.4,0.1,0.1,0s0,0,0.1,0s0.4,0.3-0.2-0.1c0.1,0,0.1,0.1,0.2,0.1l-0.4-0.2l0.1,0.1c-0.1,0-0.6-0.5-0.3-0.2
		s-0.5-0.6-0.2-0.3s-0.4-0.6-0.2-0.2c0.1,0.2,0.1,0.4-0.1-0.2c0,0.1,0.1,0.1,0.1,0.2c0.1,0.3,0-0.1,0-0.1s0.1,0.2,0.1,0.2
		c0,0.2,0.1,0.4,0.1,0.6v-0.4C181,132.7,181,132.9,181,133.1c0,0.4,0.2,0.8,0.4,1.2c0.3,0.5,0.8,1,1.3,1.4c0.4,0.3,0.9,0.6,1.4,0.7
		c0.3,0,0.7,0,0.7-0.4c0.3-2.4-1.6-4.7-3.6-5.9c-1.5-1.1-3.5-1.1-4.9,0c-1.2,1.1-1.5,2.9-0.8,4.4c0.6,1.3,1.5,2.3,2.6,3.1
		c0.9,0.7,1.9,1.1,3,1.2c0.9,0.1,1.8-0.2,2.5-0.8c0.6-0.5,1-1.3,1.2-2.1c0-0.4-0.1-0.9-0.4-1.2c-0.4-0.5-0.8-1-1.3-1.4
		c-0.4-0.4-0.9-0.6-1.4-0.7C181.4,132.6,181.1,132.7,181,133.1z" fill="currentColor"></path>
    <path class="st2" d="M217.2,187.9c-11.1,6.9-21.7,14.5-31.8,22.8c-2.9,2.4,0.8,5.5,3.2,5.9l28.9,5.6c1.9,0.4,5.1,0,5.6-2.4
		s-2.3-4-4.2-4.4l-28.9-5.6l3.2,5.9c10.1-8.3,20.7-15.9,31.8-22.8c2-1.3,0.7-4-0.8-5C222.1,186.6,219.4,186.6,217.2,187.9
		L217.2,187.9z" fill="#000005"></path>
    <path class="st2" d="M218.1,197.4l-8.2,58.1c-0.4,2.6,1.1,5.1,3.6,6c2.1,0.7,5.1-0.1,5.5-2.7l8.2-58.1c0.4-2.6-1.1-5.1-3.6-6
		C221.5,194.1,218.5,194.8,218.1,197.4z" fill="#000005"></path>
    <path class="st2" d="M264.5,196.1c-4.8-1.2-9.8-0.4-14,2.1c-4.1,2.6-7.4,6.3-9.5,10.8c-4.1,8.4-4.7,18.1-1.6,27
		c1.9,5.1,4.9,10.1,9.1,13.6c3.8,3.1,8.6,4.8,13.5,4.7c5-0.1,9.8-1.7,13.9-4.4c2.1-1.3,3.9-3.2,5.2-5.3c1.3-2.5,2-5.2,2.2-7.9
		c1.7-12.8-3.3-25.7-11.1-35.7c-0.6-0.8-2.8-2.6-2.8-0.4s1.6,4.6,2.9,6.2c-0.6-0.7,0.3,0.5,0.5,0.7s1.1,1.6,0.4,0.6
		c0.3,0.4,0.6,0.9,0.9,1.4l0.4,0.7c0.5,0.9-0.2-0.5,0,0.1s0.5,1,0.7,1.5c0.1,0.2,0.6,1.4,0.3,0.6c0.4,1.1,0.9,2.3,1.2,3.5
		c0-0.1-0.1-0.5,0,0c0.1,0.3,0.1,0.5,0.2,0.8c0.1,0.5,0.2,1.1,0.4,1.6c0.2,1,0.4,2.1,0.5,3c0.2,2.2,0.3,4.4,0.1,6.6
		c-0.3,4.7-1.5,9.2-5.2,12.2c-3.4,2.7-7.5,4.5-11.8,5.2c-4.1,0.8-8.3,0.2-12-1.7c-0.4-0.2-0.9-0.5-1.3-0.8l-0.6-0.4
		c0.1,0.1,0.4,0.3-0.1-0.1c-0.3-0.3-0.6-0.5-0.9-0.8c-0.1-0.1-0.6-0.6-0.2-0.2s-0.2-0.3-0.3-0.4c-0.2-0.2-0.3-0.3-0.4-0.5
		c0.4,0.9,0.3,0.4,0.1,0.2c-0.1-0.2-0.2-0.4-0.4-0.6c0.1,0,0.6,1,0.2,0.3l-0.3-0.6c0,0,0.6,1.2,0.2,0.3l-0.3-0.6
		c-0.1-0.1-0.4-1-0.2-0.4s-0.2-0.7-0.3-0.9s-0.2-0.8-0.1-0.3s0-0.1,0-0.1c-0.3-1-0.5-2-0.6-3c0,0-0.1-0.6,0-0.2c0-0.2,0-0.3-0.1-0.5
		c0-0.5-0.1-0.9-0.1-1.4c0-1,0-2,0-3c0.2-3.9,1.2-7.7,2.7-11.3c1.8-4.5,4.9-8.4,8.9-11.1c4-2.7,9-3.6,13.7-2.4c1.8,0.5,0.2-3.6,0-4
		C267.8,199.2,266.5,196.6,264.5,196.1L264.5,196.1z" fill="#000005"></path>
    <path class="st2" d="M323.3,200.1c-11.1,6.9-21.7,14.5-31.8,22.8c-2.9,2.4,0.8,5.5,3.2,5.9l28.9,5.6c1.9,0.4,5.1,0,5.6-2.4
		s-2.3-4-4.2-4.4l-28.9-5.6l3.2,5.9c10.1-8.3,20.7-15.9,31.8-22.8c2-1.3,0.7-4-0.8-5C328.2,198.8,325.5,198.7,323.3,200.1
		L323.3,200.1z" fill="#000005"></path>
    <path class="st2" d="M324.2,209.6l-8.2,58.1c-0.4,2.6,1.1,5.1,3.6,6c2.1,0.7,5.1-0.1,5.5-2.7l8.2-58c0.4-2.6-1.1-5.1-3.6-6
		C327.6,206.3,324.6,207.1,324.2,209.6L324.2,209.6z" fill="#000005"></path>
  </g>
  <g id="character">
    <path class="st0"
      d="M379.9,370.4c1,0.2,23,4,34.2,1.6s26.9-18.6,22.4-22.1s-13.3,8.7-23.6,9.2c0,0,10.7-10.7,14.5-15.5
		c4.2-5.4-0.5-9.8-5.4-5.8c-4.6,3.5-9.5,6.5-14.6,9c0,0,7.1-8,11.4-11.8s0.9-10.8-7.8-5.8s-14.5,6.1-14.5,6.1s-31.6-1-36.7,9.3"></path>
    <path class="st2"
      d="M381.3,371.5c5.1,1,10.4,1.7,15.6,2.1c4,0.4,8.1,0.5,12.1,0.4c3.5,0,7.1-0.6,10.4-1.7
		c6.8-2.9,12.8-7.5,17.3-13.4c1.3-1.7,3.1-4.1,2.8-6.4c-0.2-1-0.9-1.9-1.8-2.4c-1.5-1.2-3.3-1.8-5.2-1.9c-1.4,0.2-2.8,0.6-4,1.4
		c-1.8,1-3.4,2.1-5.1,3.2c-3.8,2.5-7.9,4.9-12.6,5.2l4.3,2.4c4.4-4.4,8.8-8.9,12.8-13.5c1.3-1.5,2.8-3.1,3.2-5.1s-0.6-3.6-2.3-4.7
		c-2-1.3-4.6-2.5-7-1.5c-1.1,0.5-2,1.1-2.9,1.9c-1.1,0.9-2.3,1.7-3.5,2.5c-3.2,2.2-6.6,4.1-10.2,5.8l4.3,2.4
		c1.9-2.1,3.8-4.2,5.8-6.2c1.4-1.5,2.9-3,4.4-4.4c1.2-1.1,2.5-2.1,2.9-3.8c1-3.8-3.2-6.1-6.2-7c-1.9-0.5-3.9-0.3-5.6,0.5
		c-2.7,1.1-5.1,2.8-7.8,4c-2.7,1.3-5.5,2.3-8.4,3.1c-0.5,0.1,0.6,0-0.2,0h-0.4h-1.9c-5.7,0-11.5,0.4-17.1,1.2
		c-3.7,0.5-7.3,1.4-10.7,2.8c-2.6,1.1-5.3,2.7-6.6,5.3c-0.3,0.6,4.1,2.9,4.5,2.3c2.4-4.8,9-6.4,13.7-7.4c5.8-1.1,11.8-1.7,17.8-1.8
		c1.6,0,3.1,0,4.7,0h0.4c-0.4,0-0.1,0,0.2,0c0.8-0.2,1.6-0.4,2.4-0.7c4.1-1.4,8.1-3.2,11.9-5.4c1.1-0.6,2.2-1.1,3.4-1.5
		c0.4-0.1,0.9-0.2,1.4-0.2c0.4,0,0.9,0.1,1.3,0s-1.9-1.4-1.5-0.8c0.1,0.2,0.3,0.4,0.4,0.6c0.3,0.6,0.4,1.2,0.4,1.8
		c-0.2,1.5-1,3-2.2,3.9c-1.6,1.5-3.2,3.1-4.7,4.7c-2.1,2.2-4.2,4.4-6.2,6.7c-0.3,0.4,3.6,2.7,4.3,2.4c2.3-1.1,4.6-2.3,6.8-3.6
		s4.1-2.5,6-3.9c0.9-0.7,1.8-1.5,2.8-2.1c0.5-0.3,1.1-0.6,1.6-0.7c0.4-0.1,1.1,0,1.5-0.1l-1-0.5c-1-0.7-1.3-0.8-0.9-0.4
		c0.1,0.1,0.1,0.3,0.2,0.4c0.2,0.4,0.3,0.8,0.3,1.3c0,1.1-0.3,2.2-0.9,3.1c-0.9,1.3-1.9,2.6-3,3.8c-2.4,2.7-4.9,5.3-7.4,7.9
		c-1.6,1.6-3.2,3.3-4.8,4.9c-0.5,0.5,3.7,2.4,4.3,2.4c3.7-0.2,7.1-1.8,10.3-3.7c2.9-1.7,5.6-3.9,8.6-5.3c0.5-0.3,1-0.5,1.6-0.6
		c0.5-0.1,1-0.1,1.5-0.2l0,0c-0.8-0.2-1.5-0.6-2.1-1.1c0,0-0.1-0.2,0,0c0-0.1,0.1,0.2,0.1,0.3c0.1,0.3,0.2,0.7,0.2,1.1
		c-0.1,2.3-1.8,4.5-3.2,6.2c-4.3,5.5-9.9,9.8-16.3,12.7c-6.3,2.6-13.9,2.1-20.5,1.6c-3.8-0.3-7.6-0.7-11.3-1.2
		c-1.3-0.2-2.5-0.4-3.8-0.6l-1.2-0.2c-0.2,0-1-0.2-0.3,0c-0.8-0.2-1,0.1-0.3,0.6C379.1,370.8,380.2,371.3,381.3,371.5L381.3,371.5z">
    </path>
    <path class="st0" d="M132.8,408.9c0,0-51.8-81.6,0-105s126.8,106.5,126.8,106.5"></path>
    <path class="st2" d="M135.1,407.8c-2.6-4.1-4.9-8.5-7.2-12.9c-5-9.6-9-19.7-12-30.1c-3.2-11.1-5.1-23.1-2.8-34.6
		c1-5.4,3.2-10.5,6.5-15c1.7-2.2,3.7-4.3,5.9-6c1.1-0.9,2.2-1.6,3.4-2.4c1.3-0.8,2.6-1.5,3.9-2.1c0.8-0.4,1.6-0.7,2.5-1l0.8-0.2
		l0.5-0.1c0.5-0.1,1.1-0.3,1.6-0.4c2.1-0.4,4.2-0.6,6.3-0.6c4.5,0.1,9,0.9,13.3,2.4c10.1,3.4,19.1,9.5,27.2,16.2
		c9.3,7.8,18,16.3,25.9,25.5c7.9,9,15.3,18.4,22.3,28.1c5.6,7.8,11,15.7,16.2,23.7c2.6,4.1,5.2,8.2,7.7,12.5
		c0.1,0.2,0.2,0.4,0.3,0.6c0.5,0.9,4.9-1.5,4.5-2.2c-1.8-3-3.6-6-5.5-9c-4.7-7.5-9.7-14.9-14.8-22.2c-6.8-9.7-14-19.1-21.6-28.2
		c-8-9.7-16.6-18.7-25.9-27.1c-8.3-7.3-17.4-14.1-27.6-18.6c-8.6-3.7-18.1-5.6-27.3-3.2c-11.8,3-22.8,11.1-27.9,22.3
		c-4.8,10.6-4.4,22.8-2.3,34c2.3,11.5,6.1,22.6,11.1,33.2c2.9,6.4,6.2,12.6,9.8,18.6c0.2,0.3,0.4,0.6,0.6,0.9
		C131.1,410.9,135.5,408.4,135.1,407.8L135.1,407.8z"></path>
    <path class="st0" d="M187.8,365.1c0,0,161.3,29.1,186.4,8s2.9-53.2-26.5-51.8s-72,10.5-203.4-21"></path>
    <path class="st2" d="M188.8,367.1c1.6,0.3,3.2,0.6,4.8,0.8c4.3,0.7,8.7,1.5,13,2.2c6.5,1,12.9,2,19.4,3c7.9,1.2,15.8,2.2,23.8,3.3
		c8.7,1.1,17.5,2.1,26.3,3c8.9,0.9,17.8,1.7,26.7,2.3c8.5,0.6,17,1,25.5,1.1c7.4,0.1,14.8,0,22.2-0.7c5.7-0.4,11.4-1.4,16.9-2.9
		c2.1-0.6,4.2-1.5,6.1-2.5c3.2-2,5.9-4.5,8-7.6c3-4,4.9-8.7,5.3-13.7c0.3-4.7-0.6-9.5-2.6-13.8c-4.4-9.5-13.2-16.7-23-20.1
		c-4.9-1.7-10.1-2.3-15.3-2c-1.9,0.1-3.8,0.2-5.7,0.4c-4.2,0.3-8.5,0.7-12.8,1c-5.1,0.4-10.2,0.6-15.4,0.8
		c-6.2,0.2-12.5,0.2-18.7,0.1c-7.7-0.2-15.4-0.6-23-1.2c-9.5-0.8-18.9-1.8-28.4-3c-11.5-1.5-23-3.4-34.4-5.4
		c-13.9-2.5-27.7-5.3-41.4-8.4c-7.6-1.7-15.2-3.5-22.9-5.3c-1.1-0.3-0.8,1.1-0.6,1.6c0.5,1.1,1.4,1.9,2.5,2.3
		c27.2,6.5,54.5,12.3,82.1,16.7c18.8,3,37.6,5,56.6,6.1c12.6,0.7,25.2,0.7,37.8,0.1c8.6-0.4,17.2-1.3,25.8-1.8
		c9.2-0.5,18.7,1.7,25.9,7.8c3.4,2.7,6.1,6.3,7.9,10.3c1.8,4,2.3,8.5,1.7,12.8c-0.9,5-3.3,9.7-6.8,13.4c-1.9,2.3-4.3,4.2-6.9,5.6
		c-4.1,2.1-9.3,3.1-14,3.9c-14.4,2.2-29.3,1.8-43.8,1.1c-17.6-0.8-35.2-2.5-52.7-4.6c-15.3-1.8-30.7-3.9-46-6.3
		c-8.3-1.3-16.6-2.6-24.9-4.1l-1.1-0.2c-1.1-0.2-0.9,1-0.6,1.6C186.8,365.9,187.8,366.7,188.8,367.1L188.8,367.1z"></path>
    <path class="st2" d="M115.6,365.9c9,1.3,17.8-0.8,25.7-5.2c7.1-4,13.2-9.6,19.1-15.2c1.2-1,1.4-2.8,0.4-4.1
		c-0.3-0.4-0.7-0.6-1.1-0.8c-2.3-1.1-5.1-0.7-7,1c-2.6,2.5-5.2,4.9-8,7.2c-0.7,0.6-1.4,1.1-2.1,1.7c-0.4,0.3-0.7,0.6-1.1,0.8
		c0,0-1.1,0.8-0.5,0.4c-1.4,1.1-2.9,2.1-4.5,3c-0.8,0.5-1.5,0.9-2.3,1.3l-1.2,0.6c-0.9,0.5,0.6-0.2-0.5,0.2c-1.6,0.7-3.3,1.2-5,1.8
		c-1.1,0.3,0.8-0.1-0.4,0.1l-1.3,0.2c-0.8,0.1-1.6,0.2-2.4,0.3l-0.7,0c0.5,0,0.6,0,0.2,0s-0.9,0-1.3,0s-0.9,0-1.3-0.1
		c-0.2,0-1.7-0.2-0.7,0c-2.3-0.3-5.2,0-6.6,2.2C111.9,363.4,113.4,365.6,115.6,365.9L115.6,365.9z"></path>
    <path class="st2" d="M176.3,349.1c10.5-10.4,16.9-24.3,18.1-39c0.1-0.5-4.5,1.2-4.9,1.4c-1.1,0.5-2.1,1.1-3.1,1.7
		c-0.4,0.3-1,0.6-1.1,1.1c-1.1,14.2-7.2,27.6-17.2,37.7c-1.4,1.4,1.6,0.4,2.1,0.2c1.2-0.4,2.4-1,3.5-1.6
		C174.7,350.4,175.5,349.8,176.3,349.1L176.3,349.1z"></path>
    <path class="st2" d="M218.2,363.4c11.2-7.9,19.3-19.4,22.9-32.6c1-3.7,1.6-7.4,1.8-11.2c0.1-0.9-4.7,0.5-5.1,0.7
		c-1.1,0.4-2.2,0.9-3.2,1.5c-0.4,0.3-1.1,0.7-1.1,1.2c-1,16.1-9.5,32-22.6,41.4c-0.2,0.1-1.3,0.8-1.1,1.2s1.4,0.3,1.6,0.2
		C213.9,365.5,216.2,364.7,218.2,363.4L218.2,363.4z"></path>
    <path class="st2" d="M262.8,373.2c12.3-7.6,21-20,24.8-33.8c1-3.8,1.7-7.8,1.8-11.7c0.2-2.5-1.3-4.9-3.6-6c-1.7-0.7-4.8-0.6-4.9,2
		c-0.1,3.4-0.6,6.8-1.4,10.1c-0.2,0.8-0.4,1.6-0.6,2.4c-0.1,0.4-0.2,0.7-0.3,1.1c-0.1,0.2-0.1,0.4-0.2,0.5c0.2-0.5,0,0.1-0.1,0.3
		c-0.6,1.6-1.2,3.2-1.9,4.7c-1.4,3-3.1,5.9-5,8.7c-1.8,2.6-3.9,5.1-6.2,7.3c-2.8,2.7-5.8,5-9.1,7.1c-0.8,0.5-1,2-0.9,2.8
		c0.2,1.3,0.7,2.4,1.5,3.4C258.4,373.7,260.6,374.6,262.8,373.2L262.8,373.2z"></path>
    <path class="st2" d="M302.2,381.6c7.4-4,12.8-10.9,18-17.3c2.8-3.3,5.2-6.9,7.3-10.7c2.1-4,3.5-8.4,4-12.9c0.5-5.1,0.5-10.3,0-15.4
		c-0.2-2.5-1.9-4.6-4.3-5.5c-1.7-0.6-4.6-0.2-4.4,2.3c0.5,8.5,1,16.9-2.7,24.7c-3.2,6.9-8.8,13-14,18.8c-2.7,3.3-6,6.1-9.7,8.3
		c-4.4,2.4,2.2,9.9,6,7.8H302.2z"></path>
    <path class="st2" d="M356.5,381.2c13.4-13.6,12.8-34.1,11.9-51.8c0-0.5-0.7-1-1-1.2c-0.9-0.7-1.9-1.4-3-2c-1-0.6-2.1-1.1-3.2-1.6
		c-0.1,0-1.5-0.5-1.5-0.3c0.9,17.7,1.5,38.1-11.9,51.8c-0.5,0.5,3.6,2.9,4,3.1c1,0.6,2.1,1.1,3.2,1.6
		C355.3,381,356.2,381.5,356.5,381.2L356.5,381.2z"></path>
    <path class="st2" d="M125.4,404c12.3,1.8,24.8,0.6,36.4-3.6c11.1-3.9,21.1-10.6,29.6-18.5c3.2-2.8,6-5.9,8.4-9.3
		c1.2-1.8-0.1-4.8-1.2-6.3c-0.7-1-3-3.6-4.2-1.8c-2,2.9-4.4,5.5-6.9,7.9c-3.7,3.6-7.8,6.8-12.1,9.7c-9.8,6.8-21.1,11.2-32.9,12.8
		c-6.7,0.9-13.6,0.8-20.3-0.2c-2.1-0.3-1.5,3.4-1.1,4.5C121.8,401.1,123.2,403.7,125.4,404L125.4,404z"></path>
    <path class="st2" d="M172.4,414.1c6.1,1.6,12.4,1.8,18.6,0.6c5.5-1.2,10.7-3.1,15.7-5.6c8.9-4.2,18-9.1,25.5-15.5
		c4.1-3.5,7.7-7.6,10.4-12.3c0.9-1.5-8.2-5.2-9.6-2.7c-4.5,7.8-11.6,13.6-19.2,18.3c-3.9,2.4-8,4.6-12.1,6.7
		c-4.6,2.4-9.4,4.4-14.3,6c-2.6,0.8-5.2,1.3-7.9,1.5c-0.6,0-1.3,0.1-2,0.1c-0.5,0-1.1,0-1.6,0l-0.9-0.1c-1.4-0.1,0.8,0.2-0.6-0.1
		l-0.9-0.2c-1.1-0.2,0.7,0.2-0.4-0.1s-4.7-1.3-5.3,0.3S171.7,413.9,172.4,414.1L172.4,414.1z"></path>
    <path class="st2" d="M151.9,277.3c0,0,21.2-3.5,21.4-12.7s-11.8-2.6-11.8-2.6s8.6-21.9-12.7-17.4c0,0,12.1-18.7-5.4-25.4
		s-41,10.6-41,10.6s-6-18.1-25.6-8.2s-10.7,18.8-10.7,18.8s-12.6,6.2-10.7,12.5s12.7,5,12.7,5s10.3,16.3,27.2,7l25.4,15.6
		c0,0-3.1,10.3,6.6,16.1S157,288.4,151.9,277.3z"></path>
    <path class="st2" d="M153.6,279.2c5.8-0.8,11.4-2.8,16.5-5.7c2.9-1.8,5.7-4.4,5.8-8c0.2-4.8-3.9-8.2-8.6-7.9
		c-2.8,0.3-5.6,1.2-8.1,2.6l4.7,3.1c1-2.6,1.6-5.3,1.8-8.1c0.3-5.3-1.8-10-6.9-12.2c-3.8-1.6-8-1.2-11.9-0.4l4.3,3.4
		c4.4-6.8,6.4-16.8,0.4-23.3c-5.2-5.6-13.5-7.5-20.9-7c-7.1,0.5-13.8,3-20.1,6.1c-3.7,1.8-7.3,3.9-10.6,6.3l4.8,2.2
		c-2.3-6.7-7.9-11.8-14.9-13.4c-6.9-1.4-13.8,1.6-19.5,5.1c-4.1,2.6-9,6.6-9.2,11.9c-0.1,2.6,0.9,5.1,2.7,7l-0.2-2.3
		c-3.8,1.9-8.1,4.7-10.3,8.5c-1.6,2.7-1.1,6.1,1,8.4c2.2,2.5,5.5,3.8,8.7,4.3c2,0.3,4,0.4,6,0.2l-3.6-2c4.3,6.9,12.4,11.9,20.6,11.8
		c3.9-0.1,7.8-1.2,11.2-3.2l-3-0.2l22.2,13.7l3.2,2l-1.7-2.9c-2.4,8,2.3,16.5,9.8,19.8c8.4,3.7,18.7-1.7,23.9-8.4
		c3.1-3.9,4.3-8.7,2.2-13.4c-0.9-2-6.1-3-4.7,0.1c1.3,2.8,0.2,6.4-1.6,9.1c-2.2,3.2-5.2,5.8-8.6,7.5c-1.6,0.8-3.4,1.5-5.2,1.8
		c-1.5,0.4-3.1,0.4-4.7,0c0.6,0.1-0.5-0.2-0.6-0.2s-0.5-0.3,0.1,0c-0.2-0.1-0.4-0.2-0.6-0.3c-2.4-1.5-4.2-3.9-4.8-6.6
		c-0.4-1.6-0.5-3.2-0.3-4.8c0.1-0.5,0.1-1.1,0.2-1.6c0-0.2,0.3-1.1,0-0.2c0.4-1.3-0.7-2.3-1.7-2.9l-19.6-12l-4.5-2.8
		c-1.5-0.9-2.9-1.8-4.7-0.9c-3,1.6-6.3,2.4-9.7,2.4c-0.6,0-1.2-0.1-1.7-0.2l-0.9-0.2c-0.5-0.1-0.2-0.1-0.1,0l-0.6-0.2
		c-0.6-0.2-1.2-0.5-1.8-0.7c0.6,0.3-0.2-0.1-0.4-0.2l-0.8-0.5l-0.4-0.2l-0.3-0.2c0.3,0.2-0.5-0.3-0.6-0.4c-0.5-0.4-1-0.7-1.4-1.1
		l-0.7-0.6c0.4,0.4,0,0-0.2-0.2c-0.4-0.4-0.7-0.7-1.1-1.1c-0.5-0.5-0.9-1.1-1.4-1.7c0.6,0.7,0,0-0.2-0.3c-0.8-1.2-2.1-2-3.6-2
		c-1.2,0.1-2.5,0.1-3.7,0.1c0.5,0-0.4,0-0.5,0l-0.7-0.1c-0.3,0-0.6-0.1-0.9-0.2l-0.4-0.1c-0.4-0.1,0.6,0.2-0.1,0
		c-0.3-0.1-0.5-0.2-0.8-0.3c-0.6-0.2,0.1,0.1-0.3-0.1c-0.1-0.1-0.8-0.5-0.5-0.3s-0.4-0.4-0.2-0.1c-0.6-0.6-1-1.4-1-2.2
		c0-1,0.4-2,1-2.9c1.4-2,3.3-3.7,5.4-5c1.3-0.9,2.7-1.7,4.1-2.4c0.9-0.4,0.2-1.9-0.2-2.3l-0.2-0.3c-0.3-0.4-0.1,0.1,0.1,0.1
		c-0.1,0-0.3-0.4-0.3-0.5s-0.2-0.4-0.3-0.6s-0.1-0.2-0.1-0.3c-0.2-0.3,0.2,0.5,0,0c-0.2-0.6-0.3-1.1-0.4-1.7c0,0,0,0.2,0-0.1
		c0-0.1,0-0.3,0-0.4c0-0.4,0-0.7,0.1-1.1c0.1-0.8,0.4-1.5,0.7-2.2c1.1-2.1,2.7-3.9,4.7-5.3c4.8-3.7,11.3-7.2,17.5-6.8
		c-0.3,0,0.3,0,0.4,0L91,221l0.7,0.1c0.6,0.1-0.2-0.1,0.4,0.1s0.9,0.3,1.3,0.5c-0.5-0.2-0.2-0.1,0.1,0s0.5,0.2,0.7,0.4
		s0.8,0.5,0.4,0.2s0.2,0.1,0.2,0.2c0.4,0.3,0.7,0.6,1.1,0.9c0.5,0.4-0.2-0.3,0.1,0.1l0.4,0.4c0.3,0.3,0.6,0.6,0.8,0.9
		c0.1,0.1,0.2,0.3,0.4,0.5s-0.2-0.4,0.1,0.1c0.2,0.3,0.4,0.6,0.6,1c0.3,0.6,0.7,1.2,1,1.8c0.1,0.2,0.2,0.5,0.3,0.7
		c-0.2-0.3-0.1-0.3,0,0.1c0.1,0.2,0.1,0.3,0.2,0.5c0.5,1.6,3.3,3.3,4.8,2.2c7.3-5.5,15.8-9.3,24.7-11.2c3.1-0.7,6.2-0.8,9.3-0.4
		c1.5,0.2,3,0.5,4.4,1.1c1.3,0.5,2.5,1.1,3.6,1.9c1.7,1.3,2.9,3.2,3.3,5.4c0.4,2.2,0.3,4.4-0.2,6.5c-0.7,3-1.9,5.9-3.5,8.5
		c-0.6,0.8,0.5,2,1.1,2.5c0.9,0.8,2.1,1.1,3.2,0.9c1.6-0.4,3.2-0.5,4.9-0.5c0.1,0,1,0,0.6,0c0.3,0,0.6,0.1,0.9,0.1l0.8,0.2
		c-0.7-0.1,0.2,0.1,0.4,0.2c0.7,0.2-0.2-0.2,0.1,0.1s0.6,0.4,0.1,0c0.2,0.1,0.4,0.3,0.5,0.4c0.4,0.2-0.1-0.1-0.2-0.2l0.3,0.3
		c0.2,0.2,0.4,0.5,0.1,0.1c0.1,0.2,0.2,0.3,0.3,0.5s0.2,0.4,0.3,0.5c0.2,0.4,0,0,0-0.1c0.1,0.1,0.1,0.3,0.2,0.4
		c0.1,0.4,0.2,0.8,0.3,1.2c0,0.2,0.1,0.4,0.1,0.6c0.1,0.5,0-0.1,0,0.5c0.1,0.9,0.1,1.8,0,2.7c-0.1,1.6-0.4,3.2-0.8,4.8
		c-0.1,0.2-0.1,0.3-0.1,0.5c0.1-0.5,0,0-0.1,0.1s-0.2,0.5-0.2,0.8s-0.1,0.5-0.2,0.7c-0.9,2.2,3.1,4,4.7,3.1l0.4-0.2l0.2-0.1
		c0.4-0.2-0.3,0.1-0.1,0l0.8-0.4c1.2-0.5,2.5-0.9,3.7-1.2c0.5-0.1,1.1-0.2,1.7-0.1c-0.6,0,0.2,0,0.4,0.1c-0.6-0.1-0.4-0.1-0.2,0
		s0.2,0.1-0.2-0.1c0.3,0.2,0.2,0.1-0.2-0.1c0.3,0.2-0.3-0.5-0.1-0.1s0.1,0.1,0.2,0.6c0.2,0.8,0.2,1.6,0.1,2.4
		c-0.4,2.6-3.1,4.6-5.5,6c-2.9,1.6-6,2.7-9.1,3.5c-1.9,0.6-3.9,1-5.8,1.3c-1.4,0.2-0.8,1.9-0.2,2.5
		C150.8,278.9,152.2,279.4,153.6,279.2z"></path>
    <path class="st0" d="M117.6,334.7l-6.1-12c0,0-11,5.5-25.5-4.7c-16.6-11.6-15.2-57.5-15.2-57.5c15.3-1.9,33.5-24,33.5-24
		c-2.4,15.7,18.4,36.1,18.4,36.1c1.8-14,14.6-16.8,17.4-4.4s-8.1,16.1-8.1,16.1s9.1,13.9,13.4,18.2
		C145.3,302.6,134.6,327.6,117.6,334.7z"></path>
    <path class="st2" d="M119.6,334.8l-6.1-12c-0.5-0.9-2.4-2.9-3.7-2.3c-4.2,2.1-9.6,1.7-14,0.5c-2.4-0.7-4.6-1.6-6.8-2.9
		c-1-0.6-2-1.2-2.9-1.9c-0.3-0.2-0.5-0.4-0.7-0.6s0.5,0.5,0,0l-0.5-0.4c-0.2-0.2-0.5-0.5-0.7-0.7s-0.2-0.3-0.4-0.4
		c0.1,0.1,0.4,0.5,0.1,0.1c-0.5-0.6-0.9-1.2-1.4-1.8l-0.2-0.4l-0.2-0.3l-0.4-0.7c-0.4-0.7-0.8-1.4-1.2-2.1c-1.4-2.8-2.5-5.8-3.3-8.8
		c-0.9-3.3-1.7-6.6-2.2-9.9c-1-6.2-1.6-12.5-1.9-18.8c-0.1-3.2-0.2-6.5-0.1-9.8l-0.6,1.1c6.8-0.9,12.9-5,18.2-9.1
		c4.8-3.8,9.2-7.9,13.2-12.4c0.8-0.9,1.7-1.8,2.4-2.8l-4.2-3.6c-1,7.1,1.8,14.2,5.2,20.3c3.3,5.6,7.2,10.9,11.6,15.7
		c0.9,1,1.8,2,2.7,2.9c0.4,0.4,3.1,2.2,3.4,0.5c0.5-3.7,1.8-7.6,4.9-10.1c0.9-0.8,2.1-1.3,3.2-1.5c0.3,0,0.7,0,1,0h0.4
		c0.6,0.1-0.4-0.1,0.2,0c0.3,0.1,0.5,0.1,0.8,0.2c-0.5-0.2-0.1,0,0.1,0c0.5,0.3,0-0.3,0.2,0.1c0.1,0.1,0.2,0.2,0.3,0.3
		c-0.8-0.6-0.1-0.1-0.1-0.1s0.6,0.8,0.1,0.1c0.1,0.1,0.2,0.2,0.3,0.4c0.4,0.5,0.6,1.1,0.9,1.7c0.7,2,1,4.1,0.9,6.1
		c-0.2,3-1.6,5.9-3.8,7.9c-1.1,1.1-2.5,2-4.1,2.5c-1.2,0.4-0.3,2.1,0.1,2.8c1.7,2.6,3.4,5.1,5.2,7.6c2.6,4,5.5,7.7,8.8,11.2L143,301
		c-1.3,2.9-2.8,5.8-4.4,8.5c-3.4,6-7.6,11.4-12.6,16.2c-2.9,2.9-6.4,5.2-10.1,6.8c-2.2,0.9,1.5,5.3,3.4,4.5
		c6.9-3,12.5-8.3,17.1-14.2c3.7-4.8,6.9-9.9,9.6-15.3c0.5-1.1,1.1-2.1,1.6-3.2c0.4-0.9-0.6-2.2-1.2-2.8c-0.3-0.3-0.6-0.6-0.9-1
		c-0.1-0.2-0.1-0.1,0.1,0.1l-0.2-0.3l-0.5-0.6c-0.7-0.9-1.4-1.8-2.1-2.7c-1.5-2-2.9-4-4.3-6c-1.7-2.4-3.4-4.9-5-7.4l0.1,2.8
		c5.3-2,9-7,9.2-12.7c0.2-4.7-1.5-9.9-5-13c-2.8-2.5-6.7-3.7-10.2-1.9c-4.4,2.3-6.5,7.3-7.2,12l3.4,0.5c-0.7-0.6-1.3-1.3-1.9-2
		l-0.9-1l-0.1-0.2l-0.7-0.8c-0.8-1-1.7-2-2.5-3c-4-5-7.5-10.2-9.7-16.3c-1.3-3.2-1.7-6.7-1.3-10.1c0-1.2-0.5-2.3-1.5-3
		c-0.6-0.5-2.2-1.5-2.9-0.7c-2.2,2.6-4.5,5.2-7,7.6c-4.7,4.8-10,9.1-15.8,12.5c-3.2,1.9-6.7,3.2-10.3,3.8c-0.5,0.1-0.6,0.7-0.6,1.1
		c-0.3,9.3,0.4,18.7,1.9,27.9c1.2,7.2,2.8,14.4,6,21c1.5,3.1,3.4,6,5.7,8.5c3.4,3.4,7.5,6,12,7.6c4.3,1.8,9,2.5,13.6,2
		c1.9-0.2,3.8-0.6,5.5-1.4l-3.7-2.3l6.1,12c0.6,1.1,1.9,2.4,3.2,2.4S120,335.7,119.6,334.8z"></path>
    <path class="st0" d="M116.9,288.9c0,0,0.5,6-5,7.5"></path>
    <path class="st2" d="M114.2,287.9c0.1,0.9,0,1.8-0.3,2.7l0.1-0.4c-0.3,1-0.7,2-1.4,2.8l0.3-0.4c-0.6,0.6-1.2,1.2-2,1.5l0.4-0.2
		c-0.4,0.2-0.9,0.4-1.3,0.5c-0.5,0.1-0.8,0.5-0.9,1c0,0.6,0.3,1.1,0.7,1.5c0.9,1.1,2.4,1.6,3.8,1.3c2.1-0.5,3.8-1.9,4.8-3.8
		c0.6-1.2,1-2.6,1-4c0-0.3,0-0.5,0-0.8c-0.3-1.3-1.3-2.4-2.6-2.7c-0.6-0.2-1.3-0.3-1.9-0.1C114.6,287.1,114.1,287.4,114.2,287.9
		L114.2,287.9z"></path>
    <path class="st1" d="M66.2,277.4c0,0,38.3-18.6,48.7-18s-10,13.5-23.7,19.6S60.6,281.9,66.2,277.4z"></path>
    <path class="st1" d="M67.3,279.5c11.7-5.9,23.8-11,36.2-15.3c3.2-1.2,6.5-2,9.9-2.6c1.2-0.2,2.4-0.2,3.6,0c0.3,0.1,0.5,0.2,0.8,0.2
		s0.2,0.1,0.3,0.2l0,0c-0.8-0.9-1.3-1.9-1.6-3.1c-0.1,0.4-0.2,0.7-0.3,1.1c-0.9,1.3-2,2.5-3.2,3.4c-1.8,1.5-3.7,2.8-5.6,4.1
		c-4.5,2.9-9.2,5.5-14,7.9c-6,3.1-12.6,4.7-19.3,4.9c-2.6,0.1-5.1-0.3-7.6-1.1c-0.4-0.2-0.8-0.3-1.2-0.6c-1.4-0.9,2,0.4,1.1,2.5
		C66.6,280.5,66.9,280,67.3,279.5c0.8-0.6-1.9-4.5-2.2-4.2c-1.7,1.4-1.2,2.9-0.2,4.7c0.8,1.8,2.4,3.2,4.4,3.7
		c5.4,1.6,11.8,0.9,17.2-0.5c6-1.5,11.6-4.6,16.9-7.6c4.5-2.5,9.2-5.3,13-8.8c1-0.9,2.2-2,2.5-3.4c0.1-0.8-0.1-1.6-0.5-2.3
		c-0.4-1.3-1.2-2.4-2.2-3.2c-2.2-1.4-5.9-0.4-8.2,0.1c-8.7,2-17.1,5.7-25.2,9.2c-3.8,1.6-7.6,3.3-11.4,5.1l-3.9,1.8
		c-0.7,0.3-1.5,0.6-2.1,1c-0.1,0.1-0.2,0.1-0.3,0.1C64.4,275.5,66.6,279.9,67.3,279.5z"></path>
    <path class="st0" d="M95.6,300.3c0,0-23.8,18.8-36.2,8s2.5-28,23.6-25.2"></path>
    <path class="st2"
      d="M93.6,298.2c-2.4,1.8-4.9,3.5-7.5,5c-4.8,2.8-10.2,5.2-15.8,5.9c-2.6,0.4-5.2,0.1-7.7-0.8c0,0-0.4-0.2-0.1,0
		L62,308c-0.3-0.2-0.6-0.3-0.9-0.5c-0.4-0.2,0.1,0.1-0.4-0.3s-0.7-0.5-1-0.8c0.3,0.3-0.3-0.3-0.5-0.5s-0.5-0.5-0.7-0.8
		c0.4,0.5-0.2-0.3-0.3-0.5s-0.5-0.9-0.3-0.5c-0.5-0.9-0.8-2-0.9-3c-0.1-1.1,0-2.3,0.4-3.3c0.8-2.5,2.3-4.8,4.3-6.5
		c5.9-5.4,14.4-6.9,22.2-5.9c1.3,0.2,1.3-1.5,1-2.3c-0.5-1.3-1.7-2.3-3.1-2.5c-7.8-1-16.2,0.5-22.5,5.3c-4.7,3.6-8.1,9.5-6.3,15.5
		c2.2,7,8.4,11.9,15.6,12.5c6.3,0.5,12.7-1.9,18.2-4.8c3.8-1.9,7.4-4.2,10.7-6.8C99.2,301.1,95.4,296.8,93.6,298.2L93.6,298.2z"></path>
    <path class="st2" d="M91.7,272.7c0.7,1,0.4,2.3-0.6,3c-0.1,0.1-0.2,0.1-0.3,0.2c-2.1,1-3.4-1.6-1.9-3.1c0.6-0.8,1.8-0.9,2.6-0.3
		C91.6,272.6,91.7,272.7,91.7,272.7z"></path>
    <path class="st2" d="M81.4,277.2c0.7,1,0.4,2.3-0.6,3c-0.1,0.1-0.2,0.1-0.3,0.2c-2.1,1-3.4-1.6-1.9-3.1c0.6-0.8,1.8-0.9,2.5-0.3
		C81.3,277.1,81.4,277.2,81.4,277.2z"></path>
    <path class="st1" d="M116.9,262.2c10.7-0.6,21.1-3.6,30.5-8.7c4.6-2.5,9-5.5,12.9-9c1.9-1.6,4.4-3.5,5.4-5.8s-0.1-5.8-2.6-6.8
		c-3-1.1-5.1,2.8-6.5,4.9c-1.8,2.8-3.3,5.7-4.5,8.8c-0.6,1.4,1.2,4.2,2.8,3.6c3.7-1.4,7.1-4.2,11.2-4.2c1.2,0,3,0.3,3.5,1.5
		c0.4,1-0.4,2.1-1.2,2.6c-2.3,1.6-6,1.5-8.6,1.1s-5.8-1.3-7.4-3.6c-0.5-0.7-1.4-1.9-2.5-1.4s-0.6,2.2-0.1,2.8
		c3.8,5.8,11.3,7.9,17.9,6.4c3.3-0.7,6-3,5.4-6.7c-0.6-3.8-3.7-6.8-7.6-7.2c-4.8-0.5-8.8,2.8-13.1,4.4l2.8,3.6
		c0.9-2.3,2-4.6,3.3-6.7c0.6-1,1.3-2,1.9-2.9c0.6-1,1.3-1.9,2.2-2.5c0.2,0,0.3-0.1,0.4-0.2c0.2-0.3-0.9-0.9-0.7-1.1
		c0,0-0.4,0.8-0.6,1c-0.8,0.9-1.6,1.8-2.5,2.6c-1.6,1.5-3.3,3-5.1,4.4c-11.3,8.8-24.9,13.9-39.2,14.7
		C113.2,257.9,115,262.3,116.9,262.2L116.9,262.2z"></path>
  </g>
</svg>