<svg transform="scale(1)" version="1.1" id="xpA2sQ5Wx1" xmlns="http://www.w3.org/2000/svg"
  xmlns:xlink="http://www.w3.org/1999/xlink" x="0px" y="0px" viewBox="0 0 500 500" xml:space="preserve"
  class="pbimage_pbimage__wrapper__image__0LEis false">
  <title>Problem</title>
  <style type="text/css">
    .st0 {
      fill: currentColor;
    }

    .st1 {
      fill: #FFFFFF;
    }

    .st2 {
      fill: #000005;
    }

    .st3 {
      fill: none;
    }
  </style>
  <g id="rocket">
    <path class="st0" d="M184.7,261.4c-4.6-19.8-29.1-32.3-47.2-21.6c-3.9,2.3-7.6,5.8-9.2,10.2c-1.7,4.5-0.6,9.4,4.1,11.4
		c2.2,0.8,4.5,1.2,6.9,1.1c2.7,0,5.3-0.9,6.4-3.5c1.7-4.2-0.5-9-3.1-12.2c-6-7.4-19.9-12.1-27.6-4.6c-0.7,0.7-0.7,1.9,0,2.6
		c0.1,0.1,0.2,0.2,0.3,0.3c1.1,0.7,2.6,0.5,3.5-0.4c2.3-2.3,5.9-2.4,8.9-1.7c3.3,0.7,6.4,2.3,8.9,4.5c2.4,2.1,4.6,5.3,4.7,8.6
		c0,1.1-0.1,2.4-1.4,2.4c-1.7,0.1-3.4-0.1-5.1-0.7c-3.2-1.3-2.6-5.2-1.3-7.7c1.8-3.2,4.5-5.8,7.8-7.4c6.8-3.6,14.8-3.2,21.7-0.1
		c8,3.6,14.8,11,16.8,19.6c0.3,1.2,1.5,2,2.7,1.7C183.5,263.6,185,262.6,184.7,261.4z"></path>
    <path class="st0" d="M175.1,281.9c-11-0.9-21.5,3.3-29.9,10.1c-4.2,3.4-8,7.4-11.2,11.8c-1.7,2.4-3.7,5-4.2,8c-0.4,3,0.5,6,2.6,8.2
		c1.2,1.4,3.4,2.8,5.4,1.9c2.4-1.2,1.8-4.4,1-6.4c-0.9-2.7-3.1-4.9-5.8-5.8c-2.8-0.8-5.7-1.1-8.6-1.1c-12-0.5-23.8,3-33.7,9.9
		c-10.1,7.3-17.5,17.7-20.9,29.7c-0.2,0.9,0.6,2.2,1,3c0.1,0.2,1.3,1.9,1.5,1.2c7.2-25.6,31.9-42.1,58.3-39c1.3,0.1,2.5,0.3,3.8,0.6
		c0.6,0.1,1.1,0.3,1.6,0.5c0.2,0.1,0.5,0.2,0.7,0.3c0.1,0.1,0.8,0.7,1,0.7l-0.5-1c0,0.1,0,0.1,0,0.2c0,0.3-0.1,0.5-0.1,0.8
		c-0.1,0.5-0.3,0.9-0.6,1.2c-0.7,0.7-1.6,1-2.6,0.8c-0.4-0.1-0.8-0.2-1.2-0.4c-0.3-0.1-0.7-0.7-0.9-0.7l0.6,1.4l-0.1-0.5
		c0.1-0.4,0-0.8,0.1-1.2c0.1-0.8,0.4-1.6,0.7-2.3c1.1-2.4,2.5-4.6,4.2-6.6c2.9-3.9,6.3-7.4,10.1-10.5c8.4-6.8,18.9-11.3,29.9-10.4
		c0.8,0.1,0-1.6-0.1-1.9C176.6,284,175.9,282,175.1,281.9L175.1,281.9z"></path>
    <g id="rocket-2">
      <path class="st0" d="M309.9,285.1c26.7-48.7,44.2-139.1,44.2-139.1c-25.4-25-65.4-27.7-65.4-27.7s-52.5,76.1-72,143.7
			c-7.6,26.5-10.2,49.4-10.2,67.9c0.9-0.7,1.8-1.4,2.8-2.1c8.1-6.1,19-12.1,27.8-7.1c9.2,5.3,9,18.7,6,29c-0.8,2.7-1.7,5.4-2.7,8
			c5.5-3.4,11.5-6.2,17.6-8.3C276.7,331.5,297.3,308,309.9,285.1z"></path>
      <path class="st0" d="M312.3,285.1c8.1-14.8,14.2-30.7,19.7-46.7s10.2-32.4,14.5-48.8c3.1-11.8,5.9-23.7,8.4-35.6
			c0.5-2.5,1.1-5.1,1.6-7.6c0.1-0.2,0.1-0.3,0.1-0.5c-0.1-0.3-0.4-0.6-0.6-0.8c-0.9-0.9-1.8-1.7-2.8-2.5c-3.5-3-7.2-5.8-11.2-8.2
			c-13.1-8.1-28.1-13.1-43.2-15.6c-2.9-0.5-5.9-0.9-8.8-1.2c-1.6-0.1-3.1,0.1-4,1.4c-0.6,0.8-1.1,1.7-1.7,2.5
			c-6.1,9.1-11.9,18.4-17.5,27.8c-9.3,15.5-18,31.3-26,47.4c-9.2,18.1-17.1,36.9-23.5,56.2c-6.9,20.7-11.2,42.3-12.7,64.1
			c-0.3,4.4-0.5,8.8-0.5,13.2c0,1.2,4.1,0.4,4.7,0c4.1-3.2,8.4-6.4,13.1-8.5c4.1-1.9,8.4-2.8,12.6-0.6c7.4,3.9,8.6,13.3,7.8,20.8
			c-0.7,5.5-2.1,10.8-4.2,15.9c-0.5,1.4,4.1,0.5,4.6,0.2c3-1.8,6-3.5,9.2-4.9c1.5-0.7,3.1-1.3,4.6-1.9c1.5-0.6,3.3-0.9,4.5-2.1
			c4.7-4.5,9.3-9.2,13.8-14c9.3-9.8,17.9-20.3,25.8-31.3C304.8,297.7,308.8,291.5,312.3,285.1c0.5-0.9-4.1-1.2-4.8,0
			c-10.5,19-24.4,36-39.3,51.7c-4.1,4.3-8.3,8.5-12.6,12.6l1.1-0.6c-6.5,2.2-12.6,5.1-18.4,8.6l4.6,0.2c3.4-9,6.6-19.5,3.4-29
			c-1.3-4.2-4.4-7.6-8.4-9.4c-5.3-2.3-11.5-1.6-16.9,0.3c-6.2,2.2-11.5,6-16.6,10h4.7c0.1-18.9,2.5-37.8,7.1-56.2
			c4.7-18.6,11-36.7,18.8-54.2c7.2-16.5,15.3-32.5,24.1-48.2c6.8-12.2,13.9-24.3,21.4-36.2c2.4-3.8,4.8-7.5,7.2-11.2
			c1.1-1.7,2.4-3.4,3.4-5.1c0-0.1,0.1-0.2,0.1-0.2l-3.6,0.8c2.9,0.2,5.8,0.6,8.6,1.1c7.1,1.2,14.2,3.1,21,5.5
			c8.9,3.1,17.4,7.4,25.2,12.8c2.1,1.5,4.1,3.1,6.1,4.8c0.9,0.8,1.8,1.7,2.8,2.5c0.2,0.2,0.4,0.2,0.4,0.4c0,0.7-0.2,1.4-0.4,2
			c-2,10-4.3,19.9-6.7,29.8c-4.1,17-8.7,33.9-14.1,50.5c-5.6,17.4-11.9,34.8-20.1,51.2c-0.9,1.8-1.8,3.5-2.8,5.3
			C307,286,311.6,286.3,312.3,285.1z"></path>
      <path class="st1" d="M254.8,294.5c1.4,0.4,2.9,0.5,4.3,0.4c6.3-0.5,23.9-3.8,29-25.7c6.2-26.9-27-39.9-42.3-22
			C231,264.5,236.9,289.5,254.8,294.5z"></path>
      <path class="st0" d="M252.6,295.5c4.4,1.2,9.6,0.1,13.9-1.3c5.3-1.6,10.2-4.3,14.3-8c4.9-4.8,8.3-10.9,9.7-17.6
			c1.5-5.7,0.9-11.7-1.5-17c-4.7-9.5-15.5-14.4-25.8-13.5c-6,0.5-11.6,2.8-16.3,6.5c-5.2,4.4-8.9,10.4-10.6,17
			c-3.1,11.9,0.6,26.2,12.1,32.2C249.7,294.5,251.1,295.1,252.6,295.5c1,0.1,2.1-0.1,3-0.7c0.2-0.1,2-1.1,1.4-1.3
			c-11.6-3.3-17.7-15-17.2-26.5c0.3-6.6,2.6-12.9,6.5-18.2c1.6-2.3,3.5-4.3,5.8-5.9c0.8-0.6,1.7-1.1,2.6-1.5
			c0.3-0.1,0.5-0.2,0.8-0.3c-0.4,0.2,0.3-0.1,0.4-0.1c0.1-0.1,0.3-0.1,0.4-0.1l0.9-0.3c1-0.2,1.9-0.4,2.9-0.4c1.1-0.1,2.3-0.1,3.4,0
			c2.4,0.1,4.7,0.6,7,1.4c4.5,1.6,8.4,4.4,11.4,8.1c7.3,9.5,5.1,23-1.2,32.4c-1.5,2.3-3.3,4.3-5.4,6.1c-0.9,0.8-1.9,1.5-2.9,2.1
			c-0.4,0.2-0.7,0.4-1.1,0.6l-0.7,0.4l-0.4,0.2c0.2-0.1,0,0-0.1,0c-0.5,0.2-1,0.4-1.4,0.6c0.5-0.2-0.3,0.1-0.4,0.1l-0.8,0.3
			l-0.3,0.1c-0.4,0.1,0.4-0.1,0,0l-0.7,0.2l-0.7,0.2l-0.3,0.1c-0.4,0.1,0.2-0.1,0,0c-0.8,0.2-1.6,0.4-2.4,0.5
			c0.5-0.1-0.5,0.1-0.7,0.1c-0.3,0-0.7,0.1-1,0.1c-1.5,0.2-3,0.1-4.4-0.3c-1-0.1-2.1,0.1-3,0.6C253.8,294.3,251.9,295.3,252.6,295.5
			z"></path>
      <path class="st2" d="M256.9,288.6c1.1,0.3,2.3,0.4,3.4,0.3c5-0.4,18.8-3,22.9-20.3c4.9-21.2-21.3-31.5-33.4-17.3
			C238.2,265,242.8,284.6,256.9,288.6z"></path>
      <path class="st1" d="M248.7,185.6c0,0-1-102.2,5.6-101.6s34.4,34.3,34.4,34.3L248.7,185.6z"></path>
      <path class="st2"
        d="M251.2,185.6c-0.1-6.3-0.1-12.7-0.1-19c0-13.3,0.2-26.6,0.6-39.8c0.3-11.6,0.6-23.3,2.3-34.8
			c0.1-0.9,0.3-1.8,0.4-2.7c0.1-0.4,0.1-0.8,0.2-1.1c0-0.2,0.1-0.3,0.1-0.5s0.2-0.7,0.1-0.3c0.1-0.5,0.3-1.1,0.6-1.6
			c0.1-0.2,0.2-0.4,0.3-0.6c0-0.1,0.1-0.1,0.1-0.2c0.2-0.3-0.3,0.2,0,0.1c0.4-0.3-0.4,0.2-0.5,0.2s-0.9,0.1-1,0.1
			c0.1,0-0.8-0.1-0.5,0s-0.7-0.2-0.2,0s-0.1-0.1,0.1,0s0.4,0.2,0.5,0.2s0.4,0.2,0.6,0.3L255,86c0.4,0.3-0.1-0.1,0.2,0.1
			c2.2,1.6,4.3,3.3,6.2,5.2c8.9,8.4,16.9,17.7,24.7,27.1c0.2,0.3-0.3-0.2,0,0l0.2,0.2l0.1,0.2V118l-13.6,22.9L251.2,177l-4.9,8.3
			c-0.9,1.5,3.9,2.2,4.8,0.7l13.6-22.9l21.5-36.1l4.9-8.3c0.1-0.2,0.1-0.5,0-0.7c-7.1-8.6-14.5-17.1-22.4-25c-2.2-2.3-4.6-4.4-7-6.4
			c-1.6-1.6-3.6-2.8-5.7-3.6c-1.8-0.5-4-0.3-5.1,1.3c-0.6,1.1-1,2.2-1.2,3.5c-0.9,4.3-1.5,8.6-1.7,13c-0.5,6.3-0.8,12.6-1.1,19
			c-0.5,13.8-0.7,27.7-0.8,41.6c0,5.3,0,10.6,0,15.9c0,2.6-0.1,5.3,0,8c0,0.1,0,0.2,0,0.4C246.2,187.4,251.2,187.4,251.2,185.6z"></path>
      <path class="st1" d="M334.8,222.1c0,0,77.6-68.9,66.6-73.5s-47.4-2.6-47.4-2.6L334.8,222.1z"></path>
      <path class="st2" d="M336.7,222.7c4.6-4.1,9.1-8.2,13.7-12.4c9.4-8.6,18.6-17.4,27.7-26.5c8-8,16.3-16.2,22.9-25.5
			c1.6-2.3,4-5.3,4-8.2c0.1-1-0.5-1.9-1.3-2.4c-2.3-1.4-5.5-1.7-8-2.1c-7.8-1.1-15.7-1.5-23.5-1.3c-5.6,0-11.2,0.1-16.7,0.4h-0.9
			c-0.8,0.1-2.6,0.3-2.9,1.4l-6.5,25.8l-10.4,41l-2.4,9.3c-0.5,1.8,4.5,1.4,4.9-0.1l6.5-25.8l10.4-41l2.4-9.3l-2.9,1.4
			c11.5-0.8,23-0.7,34.4,0.1c3.1,0.2,6.2,0.7,9.3,1.4c0.6,0.2,1.2,0.3,1.8,0.6c0.1,0,1,0.3,0.4,0.1c0.1,0,0.2,0.1,0.3,0.1
			c0.1,0.1-0.2-0.3,0.1,0.1c0,0.1,0.1,0.1,0.1,0.2s0-0.3,0,0s0.1,0.4,0.1,0.5s0,0.2,0,0.3c0,0.3,0-0.3,0,0c-0.1,0.6-0.3,1.1-0.5,1.6
			c-0.3,0.6-0.6,1.2-0.9,1.8c-0.4,0.7-0.8,1.4-1.2,2c-2.7,3.9-5.6,7.5-8.8,11c-4.1,4.6-8.3,9-12.6,13.4
			c-8.9,9.1-18.2,17.9-27.5,26.5c-3.4,3.2-6.9,6.4-10.4,9.5l-1,0.9l-0.5,0.4l-0.3,0.2l-1.5,1.4l-1.8,1.6l-0.2,0.2
			c-0.7,0.6-0.7,1.4,0.3,1.7C334.4,223.6,335.7,223.4,336.7,222.7z"></path>
      <path class="st1" d="M291.9,203.9c0,0,39.4-92,36.1-93.4s-38.8,88.2-40.9,91.3S291.9,203.9,291.9,203.9z"></path>
      <path class="st2" d="M294,205.3c1.4-3.3,2.8-6.6,4.2-9.9c3.3-7.8,6.6-15.6,9.8-23.4c3.8-9.2,7.6-18.4,11.3-27.7
			c3-7.7,6-15.3,8.7-23.1c0.8-2.3,1.5-4.7,2.1-7.1c0.2-0.6,0.3-1.3,0.3-1.9c-0.1-1.5-1.7-2.6-3-3c-1.8-0.6-2.6,0.8-3.4,2.2
			c-1.4,2.2-2.5,4.6-3.6,6.9c-3.7,7.7-7.2,15.6-10.5,23.5c-4,9.3-7.9,18.7-11.9,28.1c-3.2,7.6-6.4,15.3-9.6,22.9
			c-0.9,2.1-1.8,4.3-2.8,6.4c-0.2,0.5-0.4,0.9-0.7,1.4c-0.5,0.6-0.6,1.4-0.4,2.1c0.6,1.4,2.4,2.4,3.8,2.8c1.7,0.4,3.4,0.5,5.1,0.1
			c1.1-0.2,0.5-1.2,0-1.7c-0.7-0.7-2-1.7-3.1-1.5c-0.6,0.1-1.1,0.1-1.7,0.2c-0.5,0-0.9,0-1.4,0c0.1,0-0.4-0.1-0.4-0.1
			c-0.2,0.1,0.1-0.1,0.1,0c0.6,0.4,1.2,0.9,1.8,1.4c0.3,0-0.2,0.3,0.1-0.1c0.1-0.2,0.2-0.4,0.3-0.6s0.1-0.1,0.1-0.2l0.3-0.6
			c0.8-1.7,1.5-3.5,2.3-5.2c2.9-6.9,5.8-13.8,8.7-20.7c3.8-9,7.5-18,11.3-27c3.5-8.2,7-16.3,10.7-24.4c1.3-2.8,2.7-5.7,4.1-8.5
			c0.8-1.6,1.7-3,2.7-4.4c0.1-0.1,0.2-0.1,0.2-0.2c-0.3,0.3-0.1,0,0,0h0.1c-0.3,0.1-0.6,0.1-0.9,0c-1.1-0.4-2-1.1-2.8-2
			c-0.2-0.2,0-0.4,0-0.1s0,0.2,0,0.3c0,0.3-0.1,0.6-0.1,0.8c-0.1,0.8-0.3,1.6-0.6,2.3c-0.3,1.2-0.7,2.3-1.1,3.4
			c-2.4,7.2-5.1,14.3-7.9,21.4c-3.5,8.9-7.1,17.8-10.7,26.6c-3.3,8-6.7,16.1-10,24.1c-1.8,4.4-3.7,8.7-5.5,13.1l-0.3,0.6
			C289.2,204.1,293.5,206.5,294,205.3z"></path>
    </g>
    <path class="st1" d="M254.5,271.2c4-2.9,7.9-5.9,11.6-9.2c0.8-0.7-0.6-1-1.1-1c-1.2-0.1-2.3,0.2-3.3,0.9c-3.7,3.2-7.6,6.3-11.6,9.2
		c-0.9,0.7,0.6,1,1.1,1C252.3,272.2,253.5,271.9,254.5,271.2L254.5,271.2z" fill="#FFFFFF"></path>
    <path class="st1" d="M265.1,277.3l8.9-6.9c0.7-0.6,0.7-1.7,0.1-2.4c-0.1-0.1-0.2-0.2-0.4-0.3c-1-0.8-2.4-0.9-3.5-0.2l-8.9,6.9
		c-0.7,0.6-0.8,1.7-0.1,2.4c0.1,0.1,0.2,0.2,0.4,0.3C262.6,278,264,278,265.1,277.3z" fill="#FFFFFF"></path>
    <path class="st1" d="M286,139c6.6,1.6,12.9,3.8,19.1,6.6c0.8,0.4,1.1,0.1,0.6-0.7c-0.7-1-1.6-1.8-2.7-2.3
		c-6.4-2.9-13.1-5.2-19.9-6.9c-1-0.2-0.1,1,0.1,1.2C284,137.9,284.9,138.6,286,139L286,139z" fill="#FFFFFF"></path>
    <path class="st1"
      d="M319,154l10.9,4.8l5.2,2.3l2.8,1.2l1.2,0.5l0.8,0.4c0.5,0.2,0.5,0.2,0,0l-0.8-1v-0.1v-1l-0.1,0.2
		c-0.8,1.9,3.2,4.9,4.1,2.7c1.1-2.6-2.4-4.3-4.2-5.1l-6.7-3l-13.4-5.8c-0.9-0.4-2.1-0.2-2.1,1C317,152.5,317.8,153.6,319,154z"
      fill="#FFFFFF"></path>
    <path class="st1" d="M334.5,153l5.1-15.1c0.3-0.9-0.8-2.2-1.3-2.9c-0.3-0.3-1.7-1.6-2-0.7l-5.1,15.2c-0.3,0.9,0.8,2.2,1.3,2.9
		C332.8,152.6,334.2,153.9,334.5,153L334.5,153z" fill="#FFFFFF"></path>
    <path class="st1" d="M296.7,137.6c1.7-4.6,3.9-9.1,6.6-13.2c0.6-1-0.4-2.1-1.3-2.4s-2.6-0.4-3.2,0.6c-2.8,4.4-5.2,9.2-6.9,14.1
		c-0.1,0.5,0.1,1,0.5,1.4c0.4,0.4,1,0.7,1.6,0.8C295.1,139.2,296.3,138.7,296.7,137.6L296.7,137.6z" fill="#FFFFFF">
    </path>
    <path class="st1" d="M264.4,334.7c10.1-12.6,19.3-26,27.4-40c8.1-14.1,15.2-28.7,21.1-43.9c3.3-8.5,6.3-17.2,8.8-25.9
		c0.3-1-4.5-2.2-4.9-1.1c-4.5,15.5-10.2,30.5-17,45.1c-6.9,14.7-14.8,28.8-23.8,42.2c-5.1,7.6-10.5,15-16.2,22.1
		C259.1,334.1,263.7,335.6,264.4,334.7L264.4,334.7z" fill="#FFFFFF"></path>
    <path class="st0"
      d="M58.5,408.7c4.5-8.5,9.3-18.6,18.1-23.4c1.9-1.1,3.9-1.8,6.1-2c0.4,0,0,0-0.1,0c0.5,0.1,0.9,0.1,1.4,0.3
		c1.1,0.3,2.1,0.7,3.1,1.2c3.3,1.7,5.3,5.2,5.2,8.9c-0.1,3.6-2.2,7.7-6,8.6l4.7,0.2c1.5-8.3,6.1-15.5,11.6-21.8
		c2.8-3.2,5.7-6.1,8.7-9c3.1-3.2,6.5-6.2,10-8.9c3.3-2.6,7.1-4.3,11.2-5.2c3.2-0.4,6.5,0.1,9.4,1.6c6.9,2.9,12,9,13.6,16.3
		c1.7,8.3-0.9,16.9-7,22.8l5,0.1c-3.5-4.1-0.8-9.8,1.8-13.6c3.4-4.8,7.1-9.5,11-13.9c7.9-9,16.3-17.5,25.3-25.4
		c4.6-4,9.2-7.9,14-11.7s9.3-7.5,14.5-10.4c2.4-1.4,5-2.6,7.7-3.4c1.2-0.4,2.4-0.6,3.7-0.7c-0.9,0,0.7,0.2,0.9,0.2
		c0.8,0.2,1.5,0.5,2.2,0.8c4,1.9,7,5.5,8.1,9.8c2.8,9.7-0.6,20.2-4.1,29.2c-1.2,3-2.4,5.8-3.8,8.7c-1.2,2.7-2.6,5.2-4.3,7.5
		c-0.8,1-1.8,1.8-3.1,2.3c-0.2,0.1-0.5,0.1-0.7,0.2c3-1.2,3.1,0.5,1.9-0.1c-0.6-0.2-1.1-0.6-1.5-1c-1.8-2.2,0.2-5.1,1.8-6.8
		c7.7-8.1,17.8-14.4,28.1-18.6c5.2-2.1,10.6-3.7,16.2-4.7c2.7-0.5,5.4-0.8,8.1-1.1c2.7-0.3,5.4-0.3,8,0.2
		c10.7,2.5,13.1,16,11.7,25.3c-1.4,9.5-6.6,18.1-14.4,23.7c-1.9,1.3-3.9,2.4-6,3.3l4.9,0.2c-0.1-4.2,2.3-8.2,6.1-9.9
		c1.9-1.1,4.2-1.4,6.4-0.9c1.9,0.5,3.7,1.2,5.4,2.1c7,3.8,11.7,10.8,12.7,18.7c0.1,0.6,5,0.3,5,0.1c-0.9-7.1-4.8-13.6-10.8-17.6
		c-3.1-2.1-6.6-3.4-10.4-3.9c-4.2-0.6-9.2-0.6-13.1,1.2s-6.6,5.8-6.3,10.1c0,0.5,4.4,0.4,4.9,0.2c9.5-4,16.5-12.5,19.5-22.2
		c1.5-5,1.9-10.2,1-15.4c-0.9-5.2-3.2-10.7-7.9-13.5c-2.7-1.6-6-2.1-9.1-2.3c-3.4-0.2-6.8-0.1-10.2,0.1c-5.9,0.4-11.8,1.4-17.5,3
		c-11.6,3.3-22.4,8.9-31.7,16.7c-2.5,1.9-4.7,4-6.6,6.4c-1.5,2.1-2.1,5.1,0.6,6.5c1.1,0.5,2.3,0.7,3.5,0.7c1.6,0.1,3.1,0.1,4.7-0.2
		c2.6-0.6,4.3-3,5.5-5.2c3.4-6,6.2-12.4,8.4-19c1.8-5,2.9-10.3,3.1-15.6c0.1-4.7-0.7-9.7-3.5-13.6c-3.3-4.5-8.4-6-13.7-6.1
		c-12.9-0.3-23,8.7-32.5,16.3c-10.2,8.1-19.9,16.9-29,26.3c-4.6,4.8-9,9.7-13.1,14.8c-2,2.5-4,5-5.9,7.6c-1.7,2.2-3,4.7-3.8,7.4
		c-0.8,2.5-0.3,5.2,1.3,7.2c0.4,0.5,1.9,0.3,2.5,0.3s2,0.2,2.5-0.2c5.8-5.6,8.5-13.7,7.2-21.7c-1.3-7.9-6.6-14.5-13.9-17.6
		c-3.8-1.6-7.9-2.3-12-2.3c-4.3-0.2-8.5,0.6-12.4,2.3c-4.1,2-7.8,4.7-11.1,7.9c-3.4,3.1-6.8,6.4-10,9.8c-7,7.2-13.3,15.6-15.2,25.7
		c-0.1,0.4,4.3,0.3,4.7,0.2c3.9-0.9,6.2-4.2,6.6-8.1c0.4-4.2-1.9-8.2-5.7-10c-2.1-1-4.3-1.6-6.6-1.7c-2.7-0.3-5.5-0.1-8.1,0.4
		c-5,1.1-9.3,4.4-12.6,8.2c-4.4,5.1-7.6,11.2-10.7,17.2c0.8,0.2,1.6,0.3,2.5,0.4C56.4,409,58.3,409.2,58.5,408.7L58.5,408.7z"
    ></path>
    <path class="st0" d="M417,189.8c1.8,5,4.2,9.9,7,14.4c0.5,0.8,2,1.1,2.8,1.3c0.2,0,2.3,0.4,1.9-0.2c-2.8-4.6-5.2-9.4-7-14.4
		c-0.1-0.3-0.8-0.6-1-0.7c-0.6-0.3-1.2-0.5-1.8-0.6C418.6,189.6,416.8,189.1,417,189.8L417,189.8z"></path>
    <path class="st0" d="M424.4,185.8c1.6,6.6,3.6,13.2,6,19.6c0.6,1.6,5.4,0.3,4.9-1.1c-2.3-6.4-4.4-12.9-6-19.6
		C428.9,183.1,424,184.2,424.4,185.8L424.4,185.8z"></path>
    <path class="st0" d="M431.4,216.9l-1-0.9c-0.2-0.2-0.5-0.4-0.7-0.6s-0.5-0.4-0.8-0.6s-0.5-0.3-0.7-0.5c-0.2-0.1-0.4-0.2-0.6-0.3
		l-0.2-0.1c-0.1,0-0.2,0-0.1,0.1l0.1,0.2c0.2,0.2,0.4,0.4,0.6,0.6l1,0.9c0.2,0.2,0.5,0.4,0.7,0.6s0.5,0.4,0.8,0.6s0.5,0.3,0.7,0.5
		c0.2,0.1,0.4,0.2,0.6,0.3l0.2,0.1c0.1,0,0.2,0,0.1-0.1l-0.1-0.2C431.8,217.3,431.6,217.1,431.4,216.9L431.4,216.9z"
    ></path>
    <path class="st0" d="M432.5,212.8l0.1,1.3c0,0.3,0.1,0.5,0.3,0.7c0.1,0.3,0.3,0.5,0.6,0.7l0.5,0.4c0.4,0.2,0.8,0.4,1.2,0.4h0
		c0.2,0,0.4,0,0.6,0h0.1l0.5-0.1h0.1h0.1l0.5-0.2l0,0l0.1-0.1c0.1-0.1,0.2-0.3,0.4-0.4l0.1-0.1c0.1-0.1,0.1-0.2,0.1-0.4
		c0.1-0.1,0.1-0.2,0.1-0.4c0-0.2,0-0.4,0-0.6c0-0.3-0.1-0.5-0.3-0.8c-0.1-0.3-0.3-0.5-0.6-0.7c-0.2-0.2-0.5-0.4-0.8-0.5
		c-0.3-0.2-0.6-0.3-0.9-0.3h-0.6c-0.3,0-0.7,0.1-0.9,0.3l-0.3,0.3c-0.2,0.3-0.2,0.6-0.1,0.9c0,0,0,0.1,0,0.1v-0.5c0,0.1,0,0.1,0,0.2
		l0.2-0.4c0,0.1-0.1,0.2-0.1,0.2l0.3-0.4c-0.1,0.1-0.1,0.1-0.2,0.2l0.4-0.2l-0.2,0.1l0.5-0.1c0,0-0.1,0-0.1,0h0.6h-0.1l2.6,2.3
		l-0.1-1.3c0-0.3-0.1-0.5-0.3-0.7c-0.1-0.3-0.3-0.5-0.6-0.7c-0.2-0.2-0.5-0.4-0.8-0.6c-0.3-0.2-0.6-0.3-0.9-0.3h-0.6
		c-0.3,0-0.7,0.1-0.9,0.3l-0.3,0.3C432.5,212.2,432.4,212.5,432.5,212.8L432.5,212.8z"></path>
    <path class="st0" d="M151.6,126.9c3.8,16.6,8.4,33.2,9.5,50.2c0.1,1.5,4.7,3.2,4.6,1.6c-1.2-17-5.7-33.6-9.5-50.2
		c-0.2-1-1.5-1.7-2.4-2C153.4,126.4,151.4,125.9,151.6,126.9L151.6,126.9z"></path>
    <path class="st0" d="M167.8,121.2c-0.3,18,2.9,35.8,9.4,52.6c0.4,1,1.3,2.3,2.5,2.1s1.4-1.6,1.1-2.6c-6.2-16-9.3-33.1-9.1-50.2
		c0.1-1.3-0.5-2.5-1.6-3.1c-0.7-0.4-1.5-0.2-2,0.5C167.9,120.7,167.8,120.9,167.8,121.2L167.8,121.2z">
    </path>
    <path class="st0" d="M166.1,188l0.1,1.6v0.2c0,0.3,0.1,0.7,0.2,0.9c0.2,0.3,0.5,0.6,0.8,0.8c0.2,0.1,0.5,0.3,0.8,0.4
		c0.3,0.1,0.7,0.2,1.1,0.2c0.6,0.1,1.1,0,1.7-0.1c0.3-0.1,0.6-0.2,0.9-0.4c0.3-0.2,0.5-0.4,0.8-0.6c0.2-0.2,0.3-0.4,0.4-0.6
		c0.1-0.2,0.2-0.4,0.2-0.7c0-0.2,0-0.5-0.1-0.7c-0.1-0.3-0.2-0.5-0.4-0.6c-0.2-0.2-0.5-0.4-0.7-0.5c-0.2-0.1-0.4-0.2-0.6-0.3
		c-0.2-0.1-0.4-0.2-0.6-0.2s-0.6-0.2-1-0.2c-0.1,0-0.2,0-0.3,0c-0.3,0-0.7,0-1,0c-0.1,0-0.2,0-0.3,0c-0.3,0-0.6,0.1-0.9,0.2
		c-0.3,0.1-0.5,0.2-0.8,0.4c-0.2,0.1-0.4,0.3-0.5,0.6c-0.1,0.2-0.2,0.5-0.1,0.7c0,0.3,0.1,0.5,0.2,0.7c0.3,0.5,0.8,0.8,1.4,1
		c0.6,0.2,1.3,0.2,1.9,0.1l0.2-0.1l-0.6,0.1c0.2,0,0.4,0,0.6,0h-0.7c0.2,0,0.4,0,0.6,0.1l-0.6-0.1c0.2,0,0.4,0.1,0.6,0.2l-0.6-0.2
		c0.2,0.1,0.3,0.2,0.5,0.3l-0.5-0.3l0,0l-0.6-1.4l0,0l0.1-0.5c0,0.1-0.1,0.2-0.2,0.3l0.3-0.4c-0.1,0.1-0.2,0.2-0.3,0.2l0.4-0.3
		c-0.1,0.1-0.2,0.1-0.3,0.2l0.5-0.2c-0.1,0-0.2,0.1-0.3,0.1l0.6-0.1h-0.3h0.7h-0.2l0.6,0.1l-0.2-0.1l0.6,0.3c-0.1,0-0.1-0.1-0.2-0.1
		l1,1.7l-0.1-1.8c0-0.2,0-0.5-0.1-0.7c-0.1-0.3-0.2-0.5-0.4-0.6c-0.2-0.2-0.5-0.4-0.8-0.5c-0.3-0.2-0.6-0.3-0.9-0.3
		c-0.6-0.1-1.3,0-1.8,0.3l-0.4,0.3c-0.2,0.2-0.4,0.5-0.4,0.9L166.1,188z"></path>
    <path class="st0"
      d="M177.4,182.8c-0.1,0.1-0.1,0.3-0.1,0.4c0,0.2-0.1,0.3-0.1,0.5c0,0.2,0,0.4,0,0.6c0,0.1,0,0.1,0,0.2
		c0.1,0.3,0.2,0.5,0.3,0.8c0.1,0.1,0.1,0.3,0.2,0.4c0.7,0.8,1.7,1.3,2.7,1.2c0.5,0,1-0.1,1.5-0.3c0.8-0.4,1.5-0.9,2.1-1.6
		c0.1-0.2,0.3-0.4,0.4-0.6c0-0.1,0.1-0.1,0.1-0.2c0.2-0.5,0.3-1.1,0.2-1.7c0-0.1,0-0.3-0.1-0.4c-0.1-0.3-0.2-0.5-0.3-0.8
		c-0.1-0.1-0.2-0.3-0.3-0.4c-0.2-0.2-0.4-0.4-0.6-0.6c-0.2-0.1-0.4-0.2-0.6-0.3c-0.1,0-0.1,0-0.2-0.1c-0.2-0.1-0.5-0.1-0.7-0.1
		c-0.1,0-0.2,0-0.2,0c-0.3,0-0.6,0.1-0.9,0.2c-0.3,0.1-0.6,0.2-0.9,0.4c-0.3,0.2-0.5,0.4-0.7,0.7c-0.2,0.2-0.4,0.5-0.5,0.7
		c-0.2,0.4-0.2,0.9,0,1.4c0.3,0.4,0.8,0.6,1.3,0.6c0.1,0,0.2,0,0.3,0l-0.5-0.1c0.1,0,0.2,0.1,0.4,0.1l-0.4-0.2
		c0.2,0.1,0.3,0.2,0.4,0.3l-0.3-0.3c0.2,0.2,0.3,0.4,0.4,0.6l-0.2-0.4c0.1,0.2,0.1,0.5,0.1,0.7v-0.5c0,0.2,0,0.3-0.1,0.4l0.1-0.5
		c0,0.1-0.1,0.2-0.1,0.3l0.3-0.5c0,0.1-0.1,0.1-0.1,0.2l0.4-0.5c-0.1,0.1-0.1,0.1-0.2,0.2l0.5-0.4l-0.2,0.1l0.6-0.3l-0.2,0.1
		l0.6-0.2l-0.2,0.1l0.6-0.1h-0.3l0.5,0.1c-0.2,0-0.3-0.1-0.5-0.1l0.4,0.2c-0.2-0.1-0.4-0.2-0.6-0.4l0.3,0.3
		c-0.2-0.2-0.3-0.4-0.4-0.6l0.2,0.4c-0.1-0.1-0.1-0.3-0.1-0.5v0.5c0-0.1,0-0.2,0-0.4l-0.1,0.5c0-0.1,0-0.1,0.1-0.2
		c0.2-0.4,0.2-0.9,0-1.4c-0.3-0.4-0.8-0.6-1.2-0.6c-0.6,0-1.2,0.2-1.7,0.6C178,181.7,177.6,182.2,177.4,182.8L177.4,182.8z">
    </path>
    <path class="st0" d="M321.2,102.1c0-4.6,0-9.2,0-13.8c0-1,0.2-1.8,1.4-1.6c1.1,0.3,2.1,0.6,3.1,1l6.8,2.3c0.8,0.4,1.7,0.6,2.6,0.5
		c0.9-0.3,1.2-1.2,1.6-1.9l3.2-6.2l6.5-12.6c0.5-1-3.5-3.8-3.7-3.3l-6.6,12.8c-1,2.1-2.1,4.1-3.2,6.2c-0.5,1-0.9,1.8-2.1,1.6
		c-1.2-0.3-2.3-0.6-3.4-1.1c-2.3-0.8-4.5-1.5-6.8-2.3c-1.5-0.5-3-0.8-3.1,1.2c-0.2,4.7,0,9.5,0,14.3c0,0.9,1.4,1.9,2,2.4
		C319.6,101.7,321.2,102.8,321.2,102.1L321.2,102.1z"></path>
    <path class="st0" d="M345.5,114.1c5.6-9.5,12.4-18.3,20.2-26.2l-4.6-0.2l4.1,10.4c0.5,1.3,3.8,1,4.6,0.2
		c8.3-8.3,15.9-17.1,22.8-26.5c0.6-0.9-1.3-1.4-1.8-1.4c-1-0.1-2.4,0-3.1,0.9c-6.8,9.2-14.2,17.9-22.3,26l4.6,0.2L365.9,87
		c-0.5-1.3-3.8-1-4.6-0.2c-8,8-14.9,17-20.7,26.8C339.8,115,344.6,115.5,345.5,114.1L345.5,114.1z"></path>
    <path class="st0" d="M355.1,123.3l20.3-7c0.7-0.2,1.1-0.9,0.9-1.5c-0.1-0.3-0.2-0.5-0.4-0.7c-0.9-0.9-2.2-1.2-3.5-0.8l-20.3,7
		c-0.7,0.2-1.1,0.8-0.9,1.5c0.1,0.3,0.2,0.5,0.4,0.7C352.5,123.4,353.9,123.7,355.1,123.3L355.1,123.3z">
    </path>
  </g>
  <g id="character">
    <path class="st1" d="M414.4,224.7c-0.8-1.2-9.8-9.5-13.3-14.1s-8.1-3.7-13.8-1.4s-4.7,7.3,0.4,5.8s6-0.7,6-0.7
		c-2.8,1.2-5.4,3-7.3,5.3c-2.7,3.6-2.8,7.3-0.7,7.2s4.2-3.9,6.6-4.7c0,0-4.5,7.1-1.8,9.7s6-5,6-5s2.2,6.9,7.5,8.1
		c3.3,0.7,6.7,0.8,10.1,0.2C414,235,422.3,236.3,414.4,224.7z"></path>
    <path class="st2" d="M416.6,223.6c-0.7-0.9-1.5-1.8-2.4-2.5c-1.4-1.4-2.8-2.8-4.2-4.2c-1.6-1.6-3.2-3.2-4.7-4.9
		c-1.4-1.5-2.5-3.4-4.1-4.6c-4-3-9.5-1.2-13.7,0.4c-2.3,0.9-4.9,2.3-6,4.6c-0.8,1.3-0.5,2.9,0.8,3.8c2.2,1.4,5.1,0,7.3-0.4
		c0.4-0.1,0.8-0.1,1.2-0.2h0.5h0.1c0.1,0,0.1,0,0.2,0c0.3,0,0-0.1-0.1,0s0.1,0,0.1,0l2.1-2.6c-5,1.9-10.3,5.9-11.7,11.3
		c-0.4,1.1-0.3,2.2,0.3,3.2c0.8,1.1,2.5,0.9,3.6,0.5c1.5-0.6,2.8-1.4,3.9-2.5l1.4-1.4c0.2-0.2,0.5-0.4,0.7-0.6s0.3-0.2,0-0.1
		l-2.1-0.8c-1.6,2.5-4.8,8.7-1.2,10.9c2.5,1.4,5.7-1,7.2-2.8c1.1-1.3,1.9-2.7,2.6-4.3l-4.4,1.6c0.7,2.1,1.8,4,3.3,5.6
		c3.1,3.3,7.8,3.6,12.1,3.4c0.9,0,1.8-0.1,2.8-0.3c0.2,0,0.4,0,0.7-0.1c0.8-0.2-0.5,0.1-0.7,0c0.2,0.2,1,0.1,1.3,0.1
		c2.2-0.1,4.9-1.1,6-3.2C421.3,230.3,418.3,226,416.6,223.6c-0.9-1.4-5.3,1-4.5,2.3c1.1,1.6,2.1,3.3,2.8,5.1
		c0.4,0.9,0.6,1.9,0.5,2.9c0,0.2,0,0-0.1,0.3s0.2-0.2-0.1,0.1c0.3-0.3,0.6-0.5,1-0.7c-0.3,0.1,0.6-0.1,0.1,0s-0.1,0,0.1,0h-0.7
		c-0.4,0,0.4,0,0,0c-0.4,0-0.7,0-1.1,0c-0.8,0.1-1.7,0.2-2.5,0.3c-3.6,0.2-7.7,0-10.3-2.7c-1.5-1.6-2.6-3.4-3.2-5.5
		c-0.2-0.7-1.7-0.3-2.1-0.1c-0.9,0.3-1.8,0.9-2.3,1.7c-0.4,0.9-0.9,1.8-1.5,2.7c-0.3,0.4-0.5,0.8-0.9,1.1c-0.1,0.1-0.1,0.2-0.2,0.2
		c-0.1,0,1.4-0.8,1.4-0.5c0,0.1-0.4-0.2-0.3-0.1c-0.3-0.2-0.5-0.5-0.7-0.8c-1.2-2.4,1-6.2,2.3-8.2c0.8-1.3-1.6-1-2.1-0.8
		c-2.4,0.9-3.9,2.6-5.8,4.3c-0.2,0.2-0.6,0.5-0.6,0.5s0.9-0.2,0.9-0.3s-0.1-0.1-0.2-0.2c-0.1-0.3-0.2-0.6-0.3-0.9c0-0.5,0-1,0.2-1.5
		c0.7-2.3,2.2-4.3,4.3-5.6c0.7-0.5,1.4-0.9,2.1-1.2c0.1-0.1,0.9-0.4,0.5-0.2h0.1c0.7-0.3,3.3-1.6,2.1-2.6c-0.5-0.3-1.2-0.4-1.8-0.4
		c-1.9,0.1-3.7,0.4-5.5,1c-1,0.3-2.5,0.4-2.7-1c-0.2-1.2,1-1.9,1.9-2.2c3.5-1.4,7.5-2.5,10.6,0.6c1.2,1.2,2.3,2.7,3.4,4
		c1.3,1.4,2.7,2.9,4.1,4.2s2.9,2.9,4.3,4.3c0.8,0.7,1.6,1.6,2.3,2.4C413.1,227.2,417.5,224.8,416.6,223.6z"></path>
    <path class="st1" d="M399.1,415.4c0,0-0.8,16-0.3,16s7.6-0.2,7.6-0.2v-6.4l3.5,7l23.8-1.3c0,0,0.8-2.3-4.6-4.9s-14-6.2-14-6.2
		L415,410L399.1,415.4z"></path>
    <path class="st2" d="M396.7,416c-0.2,3.3-0.3,6.6-0.4,10c-0.1,1.8-0.2,3.5,0,5.3c0,0.7,0.1,1.4,0.9,1.8c0.8,0.2,1.7,0.3,2.5,0.2
		l6.2-0.2c1.2,0,3-1,3-2.4v-6.4l-4.7,1.6l3.5,7c0.4,0.6,1,0.9,1.7,0.8l20.8-1.1l3-0.2c1.3,0,2.4-0.8,2.9-1.9
		c0.2-1.2-0.1-2.4-0.9-3.2c-1.7-2.2-4.5-3.3-7-4.4c-3.8-1.7-7.6-3.4-11.4-5l0.8,1.1l-0.2-9.5c0-1.6-2.1-1.3-3.1-1l-15.9,5.4
		c-0.9,0.3-2,1.5-1.6,2.5s2.1,0.8,3,0.5l15.9-5.4l-3.1-1l0.2,9.5c0,0.5,0.3,0.9,0.8,1.1c3.4,1.4,6.8,2.9,10.1,4.4
		c2.3,1,5,1.9,6.8,3.7c0.4,0.4,0.8,0.8,1,1.4c-0.1-0.3,0,0.3,0,0.4s0.1-0.4,0-0.2l2.9-1.9l-20.8,1.1l-3,0.2l1.7,0.8l-3.5-7
		c-1-2-4.7-0.3-4.7,1.6v6.4l3-2.4c-2.5,0.1-5.1,0.2-7.6,0.2l1.1,0.2c0.1,0,0.8,0.6,0.7,0.9c0,0,0-0.2,0-0.2c0-0.2,0-0.4,0-0.6
		c0-0.6,0-1.3,0-1.9c0-1.8,0.1-3.6,0.1-5.5c0.1-2.5,0.2-5.1,0.3-7.6C401.6,412.5,396.8,413.8,396.7,416z"></path>
    <path class="st1" d="M396.3,414.8c0,0,0.8,16,0.3,16s-7.6-0.2-7.6-0.2v-6.4l-3.5,7l-23.8-1.3c0,0-0.8-2.3,4.6-4.9s14-6.2,14-6.2
		l0.2-9.5L396.3,414.8z"></path>
    <path class="st2" d="M394,415.7c0.1,2.5,0.2,5.1,0.3,7.6c0.1,1.8,0.1,3.6,0.1,5.3c0,0.6,0,1.3,0,1.9c0,0.2,0,0.4,0,0.6
		s-0.2,0.4,0.1,0l1.9-1.2l0,0l1.7-0.4c-2.5,0-5.1-0.1-7.6-0.2l0.9,0.5v-6.4c0-1.6-4.2,0.5-4.7,1.3l-3.5,7l4.2-1.9l-20.8-1.1l-3-0.2
		l0.5,0.3c-0.1-0.3-0.1-0.2,0-0.5c0.1-0.6,0.4-1.1,0.9-1.5c1.6-1.6,4.2-2.4,6.2-3.3c3.1-1.4,6.3-2.8,9.5-4.1c0.5-0.2,2-0.8,2-1.5
		l0.2-9.5l-4.5,1.8l15.9,5.4c1.1,0.2,2.2,0,3.1-0.6c0.2-0.1,2.1-1.3,1.2-1.6l-15.9-5.4c-0.8-0.2-1.7-0.1-2.5,0.3
		c-0.5,0.2-2,0.8-2,1.5l-0.2,9.5l2-1.5c-4,1.7-8,3.4-12,5.2c-2.6,1.2-5.6,2.4-7.6,4.7c-0.6,0.7-1.3,1.8-1,2.8
		c0.1,0.2,0.3,0.3,0.5,0.3l20.8,1.1l3,0.2c1.4,0.1,3.5-0.5,4.2-1.9l3.5-7l-4.7,1.3v6.4c0,0.5,0.5,0.5,0.9,0.5l5.5,0.2
		c0.8,0.1,1.6,0.1,2.4,0c1.2-0.1,3.2-0.8,3.6-2.1c0.2-1.6,0.2-3.2,0-4.8c0-2.3-0.1-4.6-0.2-7c-0.1-1.4-0.1-2.9-0.2-4.3
		C398.6,413,393.9,414.2,394,415.7z"></path>
    <path class="st2" d="M409.2,312.9c0,0,11.6,102.4,8.3,105s-18.4-1.2-18.4-1.2l-1-21.5l0.4,21.7c0,0-18.8-0.3-23.9-2.2
		c0,0-8.3-91.9-8.3-106S409.2,312.9,409.2,312.9z"></path>
    <path class="st2" d="M407.4,312.1c0.5,4.3,1,8.7,1.4,13c1.1,10.1,2.1,20.2,3.1,30.2c1.1,11.2,2.2,22.5,3.1,33.8
		c0.4,4.7,0.7,9.4,1,14.1c0.1,1.8,0.2,3.7,0.2,5.5c0,0.2,0,0.4,0,0.6s0,0.6,0,0.4s0,0.3,0,0.4s0,0.4,0,0.6c0,0.7,0,1.3,0,2
		c0,0.9-0.1,1.9-0.2,2.8c0,0.1-0.1,0.3-0.1,0.4s0.2-0.4,0,0s-0.1,0,0.1-0.1c-0.3,0.2-0.5,0.3-0.6,0.4c-2.4,0.9-5.4,0.4-7.9,0.1
		c-2.6-0.3-5.3-0.8-7.9-1.4l-1.3-0.3l2.6,2.9l-0.9-18.8L400,396c-0.2-1.1-0.9-2.1-1.9-2.7c-0.6-0.3-1.9-0.5-1.9,0.6l0.4,19v2.7
		l1.1-0.9c-3.3-0.1-6.6-0.2-9.9-0.4c-2.6-0.2-5.2-0.4-7.9-0.6c-1.1-0.1-2.3-0.3-3.4-0.5c-0.5-0.1-0.9-0.2-1.4-0.3
		c-0.3-0.1-0.6-0.1-0.9-0.3l2.2,2.8c-0.6-6.4-1.2-12.9-1.7-19.3c-1.2-13.7-2.4-27.3-3.5-41c-1-12.4-2-24.8-2.8-37.2
		c-0.1-1.9-0.2-3.9-0.3-5.8c0-0.4,0-0.7,0-1.1c0-0.1,0-0.3,0-0.4c0,0.3,0,0.2,0-0.1s0-0.7,0-1s0-0.5,0.1-0.7c0-0.1,0-0.2,0-0.3
		c-0.1,0.4,0,0,0.1-0.1c0.2-0.7,0.7-1.3,1.4-1.7c0.1-0.1,0.3-0.2,0.5-0.3c0.3-0.2,0.1-0.1,0.3-0.1c0.5-0.2,1-0.4,1.5-0.5
		c2.3-0.4,4.7-0.5,7-0.1c6.1,0.9,12,2.3,17.8,4.4c4.1,1.3,8.1,2.8,12,4.5l0.6,0.3c1,0.4,1.7-0.2,1.6-1.2c-0.2-1.2-1-2.3-2.2-2.8
		c-8.7-3.8-17.8-6.7-27.2-8.7c-2.8-0.6-5.6-0.9-8.4-0.9c-2.3-0.1-4.5,0.4-6.5,1.5c-3.2,2.1-2.5,6.4-2.3,9.6
		c0.5,11.6,1.5,23.2,2.5,34.9c1.1,14.2,2.3,28.3,3.6,42.5c0.7,7.9,1.2,15.9,2.1,23.8c0,0.1,0,0.2,0,0.4c0.2,1.2,1,2.3,2.2,2.8
		c4.4,1.6,9.5,1.6,14.2,1.9c3.4,0.2,6.8,0.4,10.2,0.4c0.5,0,1.2-0.2,1.1-0.9l-0.3-19v-2.7l-3.8-2l0.9,18.8l0.1,2.7
		c0.2,1.4,1.3,2.6,2.6,2.9c4.6,1.3,9.3,1.9,14,2.1c1.6,0,4.6,0.1,5.5-1.5c0.3-0.7,0.5-1.4,0.5-2.1c0.2-2.8,0.2-5.7,0-8.5
		c-0.2-4.4-0.5-8.7-0.8-13.1c-0.8-11.2-1.8-22.4-2.9-33.6c-1-10.7-2.1-21.3-3.3-32c-0.6-5.4-1-10.9-1.8-16.3v-0.2
		c-0.2-1.2-1-2.3-2.2-2.8c-0.5-0.3-1.2-0.1-1.5,0.4C407.3,311.5,407.3,311.8,407.4,312.1z"></path>
    <line class="st3" x1="395.4" y1="334.1" x2="399.1" y2="416.7"></line>
    <path class="st1" d="M393,334.7l1.2,27.9l2,44.5l0.5,10.2c0.1,1.3,4.9,0.4,4.8-1.3l-1.2-27.9l-2-44.5l-0.5-10.2
		C397.8,332.2,392.9,333,393,334.7L393,334.7z"></path>
    <path class="st1" d="M383.4,227.5c0,0-6.6,3.8-11.6,1.8s-14.3-7.2-17.1-2.6s3.3,8.9,8,9.6c0,0-5.8,13,0.8,19.4s11,5.5,9.7,11.1
		c0,0,6.5,12.8,11.1,2.9c0.7-1.5,11.5-19.9,1.6-30.5C385.8,239.1,380,233.6,383.4,227.5z"></path>
    <path class="st2" d="M382.2,225.3c-2.1,1.2-4.5,1.9-6.9,2.2c-3.4,0.3-6.5-1.7-9.5-2.9s-6.6-2.7-9.9-1.7c-3.7,1.1-4.7,5.5-3.3,8.8
		c1.7,3.9,6.1,6.4,10.2,7.1l-2-3.8c-2.6,5.8-3.9,13.6-0.8,19.4c1.4,2.3,3.3,4.3,5.5,5.8c1.7,1.3,3.6,2.3,5.2,3.5l0.3,0.3
		c0.5,0.4-0.4-0.3,0.1,0.1c0.1,0.1,0.1,0.2,0.2,0.3c-0.5-0.6,0,0.2-0.1-0.2s0,0.5,0-0.2c0,0.2,0,0.4,0,0.5c0,0.4,0.1-0.5,0,0.2
		c0,0.3-0.1,0.5-0.1,0.8c-0.1,1.2,0.3,2.4,1,3.3c1.5,2.5,3.5,5.4,6.4,6.5c3.7,1.5,6-1.4,7.6-4.5c2.9-5.8,5.5-11.9,5.8-18.5
		c0.2-5.2-1.1-10.6-4.7-14.5c-0.2-0.2-0.4-0.4-0.5-0.6s0.5,0.6,0.3,0.3c-0.2-0.2-0.3-0.4-0.5-0.6c-0.2-0.3-0.5-0.6-0.7-0.9
		c0-0.1-0.3-0.4,0,0c-0.2-0.3-0.3-0.5-0.5-0.8c-1.1-2-1-4.3,0.1-6.3c1.1-2-2.3-5.5-3.6-3c-2.6,4.8-0.8,10.5,2.7,14.3
		c0.1,0.1,0.8,0.8,0.5,0.5s0.3,0.4,0.4,0.5c0.2,0.3,0.5,0.6,0.7,0.9c0.6,0.9,1,1.9,1.3,2.9c0.6,2.2,0.8,4.6,0.5,6.9
		c-0.6,4.4-1.9,8.8-3.9,12.8c-0.5,1-1,2.1-1.6,3.1c-0.4,0.8-0.8,1.6-1.4,2.3c-0.4,0.5-1,0.8-1.7,0.8c0.3,0-0.2,0-0.3-0.1s0,0,0.1,0
		c-0.1,0-0.2-0.1-0.3-0.1c-0.1,0-0.6-0.3-0.4-0.2s-0.4-0.3-0.5-0.4s-0.4-0.3-0.5-0.5c0.3,0.3-0.1-0.1-0.2-0.2
		c-0.3-0.4-0.6-0.7-0.9-1.1l-0.4-0.6l-0.2-0.3c0.2,0.3-0.1-0.2-0.2-0.3l-0.3-0.4c-0.2-0.3-0.4-0.6-0.5-0.9l0.4,1.8
		c0.7-2.7-0.1-5.5-2.2-7.4c-2-1.9-4.7-3.1-6.8-4.8c-1.2-0.9-2.2-2-2.9-3.2c-0.5-1-0.8-2.1-0.8-3.3c-0.2-2.5,0.1-5,0.8-7.4
		c0.4-1.3,0.8-2.6,1.3-3.8c0.5-1.6-0.3-3.3-1.9-3.8c0,0-0.1,0-0.1,0c-1.5-0.2-2.9-0.8-4.2-1.6c-0.9-0.5-1.7-1.3-2.2-2.2
		c-0.1-0.3-0.1-0.7,0-1c0.2-0.6,0.5-1.1,1-1.4c0.8-0.4,1.7-0.6,2.6-0.5c3,0.2,5.9,1.7,8.6,2.8c3,1.3,5.8,2.4,9.2,2
		c2.5-0.3,4.9-1.2,7.1-2.4C386.7,228.5,384.3,224.1,382.2,225.3z"></path>
    <path class="st2" d="M392.5,260.6c0,0,5.2,5.6,8.4,2.8s-1.4-4.5-1.4-4.5s9-4,3.4-9.3c0,0,8.6-1.9,7.5-9.5s-11.5-9.6-11.5-9.6
		s4.9-7.4-2.2-10.6s-8.4,2.4-8.4,2.4s-4.5-2.1-6.2,0.5s0.8,5.5,0.8,5.5s-3.5,8.2,2.9,10.6l-0.3,12.8c-2.5,1.5-4,4.1-4.1,7
		C381.2,263.7,389.8,265.6,392.5,260.6z"></path>
    <path class="st2" d="M390.1,260.3c2.7,2.9,6.7,5,10.8,4.7c1.7-0.2,4.3-1.8,3.4-3.8c-0.5-1.3-2.2-2.1-3.4-2.5l1,1
		c1.5-0.7,2.8-1.6,3.9-2.8c2-2.3,1.6-4.8-0.5-6.8l-0.4,0.5c3.3-0.8,6.9-3.1,7.7-6.6c1.5-5.8-3.5-10.1-8.2-12.2
		c-1.8-0.8-3.6-1.4-5.5-1.8l2.3,1.2c1.5-2.4,2.4-5.8,0.8-8.3s-5.1-3.7-7.9-4.2c-2.2-0.4-4.9-0.6-6.7,0.9c-0.8,0.7-1.4,1.6-1.6,2.6
		l4.3,0.4c-2.1-1-4.4-1.5-6.7-1.5c-1.2-0.1-2.5,0.3-3.4,1.1c-0.9,1-1.2,2.4-0.8,3.7c0.1,0.5,0.3,1,0.6,1.5c0.2,0.3,0.4,0.6,0.6,0.9
		c0,0,0-0.2-0.1,0s-0.1,0.4-0.2,0.6c-0.6,1.6-0.8,3.3-0.6,5c0.4,2.9,2.3,4.6,4.9,5.7l-1.1-0.8l-0.1,5.9l-0.1,4.4
		c0.1,0.8,0,1.6-0.1,2.4c0,0.1,0.2-0.1-0.1,0.1c-0.4,0.3-0.8,0.5-1.1,0.9c-1.2,1.1-2.1,2.6-2.6,4.2c-0.5,1.5-0.3,3.2,0.6,4.5
		c1.2,1.3,2.7,2.3,4.4,2.7c3.7,1.1,8.7,1.2,10.9-2.6c0.3-0.5-4.2-2.1-4.9-1c-0.7,1.2-1.9,2.1-3.2,2.5c-0.4,0.1-0.7,0.1-1.1,0.1
		c0,0.1-0.1-0.2,0.1,0s0.1,0,0.1,0c-0.2-0.1-0.4-0.2-0.5-0.3c-2.6-1.8-1.6-5.5-0.1-7.7c0.7-0.8,1.4-1.5,2.2-2.1
		c0.4-0.3,0.3-0.3,0.4-0.8c0.2-2.1,0.1-4.4,0.2-6.5l0.1-5.8c0-0.4-0.8-0.7-1.1-0.8c-3.7-1.5-3-6.9-1.8-9.8l0-0.2
		c-1.2-1.4-1.9-3.7-0.7-5.3c0.5-0.6,1.1-0.9,1.9-0.9c-0.4,0-0.2-0.2-0.1,0c0.2,0.1,0.3,0.1,0.1,0s-0.1,0,0.1,0s0.9,0.4,0.1,0
		c0.5,0.2,4,1.4,4.3,0.4c0.2-0.8,0.7-1.6,1.3-2.2c1.6-1.4,3-0.9,4.5,0.4c2.5,2.3,1.5,6.3-0.2,8.9c-0.3,0.5,2.2,1.1,2.3,1.1l0.2,0.1
		c-0.6-0.2-0.4-0.1,0.1,0l0.4,0.1c0.5,0.1-0.3-0.1,0.1,0s0.9,0.3,1.3,0.5c1.9,0.8,3.6,1.9,5,3.5c2.9,3.2,2.7,8.2-0.5,11.1
		c-0.4,0.3-0.8,0.6-1.2,0.9c-1,0.7-2.2,1.2-3.4,1.5c-0.1,0-0.6,0.2-0.4,0.5c2,2,2.4,4.3,0.4,6.4c-1,1.1-2.3,1.9-3.6,2.5
		c-0.6,0.3,0.9,1,1,1c-0.7-0.3,0.1,0.1,0.1,0.1c0.4,0.2,0.8,0.6,1.1,1c0.3,0.5,0.3,1.1,0,1.6c-0.2,0.4-0.6,0.7-0.9,1
		c-0.2,0.1-0.6,0.2-0.7,0.4h-0.2c0.3,0,0.7,0,1,0.1c0.1,0-0.2-0.1-0.4-0.2c-0.6-0.3-1.1-0.6-1.6-1c-0.6-0.4-1.1-0.9-1.6-1.4
		c-0.8-0.7-1.9-1-2.9-1.1C391.8,259.8,389.6,259.8,390.1,260.3z"></path>
    <path class="st1" d="M381.3,240.8c0,0,6.6-5.4,9.6-2.1s-2.8,15.6-9.1,11.2"></path>
    <path class="st2" d="M382.7,242.9c1.1-0.9,2.2-1.6,3.5-2.2c0.3-0.1-0.5,0.2-0.2,0.1l0.2-0.1l0.4-0.2c0.2-0.1,0.5-0.2,0.8-0.3
		s0.5-0.1,0.7-0.2c0.1,0,0.6-0.1,0.1,0s0.1,0,0.2,0s0.5,0,0.7,0c0,0-0.6-0.1-0.3,0h0.1c0.1,0,0.3,0.1,0.4,0.1s-0.3-0.1-0.3-0.1
		s0.1,0.1,0.1,0.1c0.1,0.1,0.2,0.1,0.3,0.2c0,0-0.4-0.4-0.3-0.2s0.1,0.1,0.2,0.1l0.1,0.1c0.3,0.2-0.3-0.3-0.3-0.3s0.3,0.4,0.3,0.4
		s-0.3-0.7-0.2-0.3c0,0.1,0.1,0.2,0.1,0.3s0.1,0.5,0,0s0-0.1,0,0c0,0.2,0.1,0.4,0.1,0.6c0,0.1,0,0.2,0,0.3s0-0.6,0-0.2
		c0,0.2,0,0.5-0.1,0.7s-0.1,0.4-0.1,0.7s0,0.2-0.1,0.4s0,0.1,0,0.2c0,0.2,0.2-0.6,0.1-0.2c-0.3,1-0.7,1.9-1.2,2.8
		c-0.1,0.2,0.2-0.3,0.2-0.3l-0.1,0.2l-0.2,0.3c-0.2,0.2-0.3,0.4-0.5,0.7s-0.3,0.4-0.5,0.5l-0.3,0.3l-0.1,0.1
		c-0.3,0.3,0.4-0.3,0.2-0.1c-0.4,0.3-0.8,0.6-1.3,0.9l-0.1,0.1c-0.2,0.1,0.6-0.2,0.2-0.1l-0.3,0.1l-0.4,0.1c-0.1,0-0.6,0.1-0.1,0
		s0,0-0.1,0h-0.5c-0.3,0,0.3,0,0.3,0c-0.1,0-0.3-0.1-0.4-0.1l-0.4-0.1c-0.1,0-0.3-0.1,0.1,0s0.1,0,0,0c-0.3-0.1-0.6-0.3-0.8-0.5
		c-1-0.6-2.3-0.2-2.9,0.8c0,0.1-0.1,0.1-0.1,0.2c-0.4,1.2,0.1,2.6,1.2,3.3c2.3,1.6,5.4,1.6,7.8,0c2.1-1.5,3.7-3.7,4.5-6.2
		c0.9-2.4,1.3-5.2,0.1-7.5c-0.7-1.5-2.1-2.6-3.7-3c-1.4-0.3-2.9-0.2-4.3,0.3c-2,0.7-3.9,1.7-5.5,3c-1,0.8-1.2,2.3-0.5,3.3
		c0.7,0.9,2.2,1.7,3.2,0.9L382.7,242.9z"></path>
    <path class="st2" d="M376.4,234c-0.5-0.1-1.1,0.2-1.2,0.7c0,0,0,0.1,0,0.1c-0.1,1.1,1.2,1.2,1.6,0.4
		C377,234.8,376.9,234.3,376.4,234C376.5,234,376.4,234,376.4,234z"></path>
    <path class="st1" d="M329,225.7c0.1-1.4,4.1-9.2,4.7-14.8s4.9-7.2,10.8-8.2s7.6,3.7,2.6,5.1s-5.3,2.4-5.3,2.4c3-0.5,6-0.2,8.8,0.8
		c4.1,1.6,6,4.7,4.3,5.7s-5.5-1.1-7.9-0.6c0,0,7.4,3.7,6.4,7.2s-7.6-1.1-7.6-1.1s1.7,6.8-2.2,10.5c-2.4,2.3-5.2,4-8.3,5.2
		C335.2,237.9,328.3,239.4,329,225.7z"></path>
    <path class="st2" d="M331.5,226.2c0.2-1,0.5-2,1-2.9c0.7-1.7,1.4-3.4,2-5.1c0.7-1.8,1.2-3.7,1.6-5.7c0.3-1.6,0.4-3.2,1.3-4.6
		c1.8-2.6,5.3-3.3,8.2-3.7c0.4-0.1,0.8-0.1,1.2-0.1c0.2,0,0.6,0.1,0.4,0c0.3,0.1,0.2,0,0.3,0.1c-0.2-0.1,0.2,0.2,0.1,0.1
		s0.1,0.2,0.2,0.2c0,0.2,0,0.4,0,0.6c-0.3,0.5-0.8,0.8-1.3,1c-1.8,0.7-3.8,1-5.5,2c-0.6,0.3-1.1,0.8-1.4,1.4c-0.5,1.5,2.5,2.2,3.4,2
		c3.2-0.6,7.4-0.3,9.7,2.3c0.2,0.2,0.4,0.5,0.5,0.8c0.1,0.2,0,0.4,0.1,0.5s-0.1,0,0.2,0c-0.2,0-0.3,0-0.5,0
		c-2.2-0.4-4.4-1.2-6.7-0.8c-1.5,0.2-2.1,1.7-0.5,2.5c0.9,0.5,1.8,1,2.7,1.6c1.1,0.8,2.8,2.1,2.8,3.6c0,0.3-0.3,0.6-0.3,0.8
		c0-0.1,0,0,0,0s0.5-0.1,0.1-0.1c0.3,0,0.3,0,0.1,0s-0.1,0,0.1,0c0,0-0.6-0.1-0.3-0.1s-0.3-0.1-0.3-0.1l-0.6-0.3
		c-0.4-0.2,0,0-0.2-0.1s-0.3-0.2-0.5-0.3c-0.3-0.2-0.7-0.4-1-0.6s-0.6-0.4-0.9-0.6c-0.9-0.6-4.4-1-3.9,0.9c0.5,1.9,0.5,4,0.1,5.9
		c-0.8,3.7-4.3,6-7.5,7.6c-0.5,0.3-1,0.5-1.5,0.7c-0.3,0.1-1.2,0.4-0.1,0.1h-0.2c-0.5,0.1,0.6,0,0.1,0c-0.8,0,0.5,0.1,0,0
		c-0.1,0-0.2-0.1-0.4-0.1c0.5,0,0.5,0.2,0.1,0s0.4,0,0.1,0s-0.5-0.4-0.1,0l-0.4-0.4c-0.1,0-0.1-0.1-0.2-0.2s0.2,0.2,0,0
		C331.4,233.1,331.4,229.2,331.5,226.2c0.1-1.2-1.1-1.8-2.1-2c-0.7-0.1-2.7-0.2-2.8,0.9c-0.2,5.5,0.5,13,7.2,14.1
		c1.3,0.3,2.6,0.1,3.8-0.4c1.8-0.7,3.4-1.6,5-2.7c1.9-1.3,3.9-2.8,4.9-4.9c1.3-2.9,1.6-6.1,0.8-9.1l-3.9,0.9c1.4,1,2.9,1.8,4.5,2.4
		c2.2,0.8,5.9,1.3,6.9-1.4c1.5-3.9-4.4-7.6-7.2-9l-0.5,2.5c1.2,0,2.3,0.2,3.4,0.6c1.3,0.4,2.7,0.4,4.1,0.2c2.7-0.5,3.1-2.9,1.5-4.9
		c-3.6-4.5-10.7-5.7-16.2-4.7l3.4,2c0-0.1-0.2,0.5-0.1,0.3s0.1-0.1-0.1,0.1c0.3-0.3,0.7-0.5,1.1-0.7c1.9-0.9,4.3-1,6-2.4
		c1.2-0.8,1.7-2.4,1.2-3.7c-0.8-1.7-2.8-2.6-4.5-3c-2.3-0.3-4.7-0.2-7,0.5c-2,0.4-3.9,1.1-5.7,2.2c-1.5,1-2.7,2.4-3.3,4.1
		c-0.7,1.9-0.7,4-1.3,5.9c-0.7,2.4-1.5,4.7-2.5,7c-0.7,1.3-1.2,2.8-1.5,4.3C326.4,227.3,331.3,228.2,331.5,226.2z"></path>
    <path class="st1" d="M326.4,227c0,0-16.2,24.8-12.4,33.8c3.8,9,53.4,29.1,53.4,29.1s-9.4,36.7-3.8,38s48.7-0.4,52.5-4.7
		s-6.8-35.9-6.8-35.9s33.9-26.2,34.7-34.8s-28-29-28-29l-8.2,14.3l4.9,16.2c0,0-10,7.6-27.1,8.9c-15.8,1.2-46.9-9.3-46.9-9.3
		l8.8-16.9L326.4,227z"></path>
    <path class="st2" d="M324.7,225.2c-3.4,5.2-6.4,10.6-8.9,16.3c-2.9,6.4-7,15.7-1.9,22c1.9,2.1,4,3.9,6.4,5.4
		c3.3,2.2,6.8,4.2,10.3,6.1c7.5,4,15.2,7.7,23,11.1c4.6,2,9.1,4,13.8,5.9l-1.8-3.5c-2.1,8-3.7,16.1-4.9,24.2
		c-0.6,4.3-1.5,9.5-0.1,13.8c0.5,1.8,1.9,3.2,3.8,3.7c1.6,0.2,3.1,0.3,4.7,0.3c11.4,0.3,22.9-0.3,34.2-1.7c4.2-0.5,8.9-0.9,12.8-2.7
		c3.4-1.6,2.7-6.3,2.3-9.4c-0.8-5.6-2-11.1-3.6-16.5c-1.2-4.2-2.4-8.3-3.8-12.4l-0.2-0.6l-0.3,2.4c9.9-7.6,19.6-15.7,28.2-24.8
		c2.2-2.2,4.1-4.6,5.7-7.2c1.4-2.2,1.7-5,0.7-7.4c-1.2-3.2-3.6-6.1-5.9-8.6c-2.8-3-5.8-5.9-8.9-8.5c-4.5-3.9-9.2-7.6-14-11
		c-0.5-0.4-1.6-0.9-2.1,0l-7.4,12.9c-0.3,0.5-0.6,1-0.9,1.6c-0.2,0.8-0.1,1.7,0.3,2.5l2.5,8.3l2,6.7l0.5-1.8
		c-2.5,1.8-5.3,3.3-8.2,4.4c-6.6,2.8-13.6,4.3-20.7,4.4c-6-0.1-12-0.8-17.9-2.2c-5.8-1.2-11.6-2.7-17.4-4.4
		c-3.1-0.9-6.1-1.8-9.1-2.8l2.1,4.1l8.9-17c0.7-1.4-0.3-3.3-1.6-3.9l-18.4-8.6l-2.7-1.2c-0.6-0.4-1.3-0.2-1.7,0.4
		c-0.1,0.2-0.2,0.5-0.2,0.8c0.1,1.3,0.8,2.4,1.9,3l18.3,8.6l2.7,1.2l-1.6-3.9l-8.8,16.9c-0.8,1.6,0.6,3.6,2.1,4.1
		c8.1,2.7,16.3,5,24.6,6.8c6.1,1.4,12.4,2.3,18.7,2.6c7.2,0.1,14.4-1.2,21.1-3.8c3.8-1.3,7.3-3.1,10.6-5.3c0.5-0.4,0.7-1.1,0.5-1.8
		l-4.9-16.2l-0.2,1.5l8.2-14.3h-2.1c3.8,2.7,7.5,5.6,11.1,8.6c3,2.5,5.9,5,8.5,7.7c1.3,1.3,2.6,2.6,3.7,4c0.2,0.3,0.5,0.6,0.7,0.9
		s0.3,0.3,0.4,0.5c-0.4-0.5,0,0.1,0.1,0.1c0.4,0.6,0.8,1.2,1.2,1.9c0.1,0.1,0.1,0.3,0.2,0.4c-0.3-0.6,0-0.1,0,0s0.2,0.5,0.3,0.8
		s0.2,0.6,0,0c0,0.1,0.1,0.3,0.1,0.4l0.1,0.3c0.1,0.6,0-0.2,0,0.1s0,0.4,0,0.6c0-0.7,0,0.1-0.1,0.2s-0.1,0.4-0.2,0.6s-0.2,0.5,0,0.1
		c-0.1,0.1-0.1,0.3-0.2,0.4c-1.4,2.5-3.2,4.9-5.2,6.9c-5.3,5.6-10.9,10.9-16.9,15.8c-3.8,3.2-7.7,6.4-11.6,9.5
		c-0.8,0.6-0.5,1.6-0.3,2.4s0.5,1.5,0.8,2.3c0.1,0.4,0.2,0.8,0.4,1.1c0,0.1,0.1,0.2,0.1,0.2c0.1,0.3,0.2,0.5,0.2,0.8
		c0.3,1.1,0.7,2.2,1,3.3c1.6,5.3,3,10.6,4.1,16c0.2,1.2,0.5,2.5,0.6,3.8c0.1,1,0.2,1.9,0.2,2.9c0,0.4,0,0.9,0,1.3c0,0.2,0,0.4,0,0.6
		s0-0.3,0-0.1s0,0.2,0,0.3c-0.1,0.3-0.1,0.6-0.2,0.9c0.2-0.4-0.1,0.2-0.3,0.4c0.3-0.4,0,0-0.2,0.1c-0.3,0.2-0.5,0.3-0.8,0.4
		l-0.4,0.2c-0.2,0.1,0.2-0.1-0.2,0.1s-0.7,0.2-1.1,0.3c-2,0.5-4.1,0.9-6.2,1.2c-11.2,1.6-22.6,2.4-33.9,2.3c-1.1,0-2.2,0-3.2,0
		s-1.5,0-2.4-0.1c-0.7,0-1.3-0.1-2-0.2c-0.2,0-0.5-0.1-0.7-0.1s-0.4-0.2,0.1,0.1c-0.3-0.2,0.3,0.2,0.3,0.3l0.1,0.1
		c-0.2-0.2,0.4,0.6,0.2,0.3c-0.3-0.5,0.1,0.3,0.1,0.2c-0.1-0.1-0.1-0.2-0.1-0.3c-0.1-0.3,0.1,0.3,0.1,0.3s-0.1-0.2-0.1-0.3
		c-0.1-0.4-0.1-0.7-0.2-1.1c0.1,0.5,0,0,0-0.2s0-0.4,0-0.6c-0.1-2.2,0.1-4.4,0.3-6.6c1.1-8.7,2.8-17.4,5-25.9c0-0.2,0.1-0.4,0.1-0.5
		c0.2-1.4-0.5-2.8-1.8-3.5c-11.1-4.5-22-9.4-32.7-14.9c-6.4-3.3-12.4-6.3-17.8-10.9c-0.1-0.1-0.5-0.5,0,0c-0.1-0.1-0.2-0.2-0.3-0.3
		s-0.4-0.4-0.5-0.6s-0.3-0.3-0.4-0.5c-0.3-0.3,0.3,0.6,0.1,0.2c-0.1-0.1-0.1-0.2-0.2-0.4c-0.4-0.6,0.3,0.4,0,0
		c-0.1-0.1-0.1-0.3-0.2-0.5c0.2,0.6,0,0,0-0.1s-0.1-1-0.1-0.5c0-0.5-0.1-0.9-0.1-1.4c0.1-3.6,1.5-7.6,3-11.1
		c2.7-6.3,5.9-12.4,9.7-18.2C329.1,227.2,326,223.3,324.7,225.2z"></path>
    <path class="st2" d="M370.5,246.3c0.1-0.3,0.2-0.6,0.3-0.9l-0.2,0.4c0.4-0.8,0.8-1.6,1.4-2.2l-4.4,1.2l3.2,2.6
		c0.8,0.4,1.7,0.4,2.6,0.1c0.4-0.1,0.8-0.3,1.1-0.5c0.4-0.2,0.7-0.6,0.9-1c0.2-1,0.5-2,0.9-2.9c0.1-0.4-0.3-0.7-0.5-0.8
		c-0.5-0.1-1.1-0.1-1.6,0c-1.1,0.1-2.1,0.8-2.7,1.7c-0.4,0.9-0.7,1.9-0.9,2.9l4.6-1.5l-3.2-2.7c-0.7-0.4-1.5-0.4-2.2-0.1
		c-0.9,0.2-1.6,0.6-2.2,1.3c-0.8,1-1.4,2.2-1.8,3.4c-0.1,0.4,0.2,0.7,0.5,0.8c0.5,0.1,1.1,0.1,1.6,0
		C368.9,247.8,370.2,247.3,370.5,246.3L370.5,246.3z"></path>
  </g>
</svg>
