<svg transform="scale(1)" version="1.1" id="oW8sPey0nJ" xmlns="http://www.w3.org/2000/svg"
  xmlns:xlink="http://www.w3.org/1999/xlink" x="0px" y="0px" viewBox="0 0 500 500" xml:space="preserve"
  class="pbimage_pbimage__wrapper__image__0LEis false">
  <title>Celebrations</title>
  <style type="text/css">
    .st0 {
      fill: currentColor;
    }

    .st1 {
      fill: #231F20;
    }

    .st2 {
      fill: #FFFFFF;
    }

    .st3 {
      fill: #D1D3D4;
    }
  </style>
  <g id="Couple">
    <path class="st0" d="M389.4,395.4l-8.6-82.6l45.7-26.8c0,0,0-44.2-27.7-52.7c-20.5-6.3-61.8-7.1-61.8-7.1
		c-23-3.6-109.6,3.4-114,15.9c-4.1,11.8,14.2,137.4,16.6,153.3H389.4z"></path>
    <path class="st1" d="M249.7,391.7L249.7,391.7c-0.4,0-0.7-0.3-0.7-0.7c0-0.9,3.8-92.2-4.2-109.1c-0.2-0.4,0-0.8,0.3-0.9
		c0.4-0.2,0.8,0,0.9,0.3c8.2,17.3,4.5,106,4.4,109.8C250.4,391.4,250.1,391.7,249.7,391.7z" fill="#231F20"></path>
    <path class="st2" d="M197.2,144.9c-8.9-8.6-35.6-22.3-45.2-7.3c-0.3,0.6-0.8,1.2-1.4,1.7c-1,0.7-2.3,0.4-3.4,0.4
		c-14.7-1-25.3,22-28,33.5c-3.3,14.1-6.5,26.9-14.2,39.3c-4.7,7.5-11.6,14.1-14.8,22.4c-3.1,8.1-4.6,16.7-4.3,25.4
		c0.1,7.2,1.7,14.3,4.5,21c6.2,13.8,19.4,23.5,33.9,28s29.9,4.1,44.8,1.9c14.2-2.1,28.4-6.1,40-14.5s20.2-21.8,20-36.1
		c-0.2-14.1-8.1-26.4-12.9-39.2s-5-25.7-3.8-38.9C213.7,167.7,207.8,155.1,197.2,144.9z" fill="#FFFFFF"></path>
    <path class="st1" d="M149,313.4c-8.5,0.1-16.9-1.1-25-3.5c-15.9-4.9-28.4-15.2-34.3-28.4c-2.9-6.7-4.4-14-4.6-21.3
		c-0.3-8.8,1.2-17.5,4.3-25.7c2.1-5.3,5.7-10,9.1-14.5c2-2.6,4-5.3,5.8-8c7.5-12,10.7-24.3,14.2-39.1c2.6-11.1,13.4-35.1,28.7-34
		h0.5c0.9,0.2,1.7,0.1,2.5-0.3c0.4-0.3,0.8-0.7,1-1.2l0.2-0.3c2.5-3.9,6.8-6.5,11.4-6.9c11.8-1.4,27.9,7.2,34.9,14l0,0
		c11.5,11.1,16.7,23.9,15.4,38.1c-1.4,15.8-0.3,27.7,3.7,38.6c1.4,3.7,3,7.4,4.6,11c4,9,8.1,18.3,8.3,28.4
		c0.2,13.4-7.6,27.4-20.3,36.6c-10.2,7.4-23,12-40.2,14.6C162.5,312.8,155.8,313.4,149,313.4z M146.2,140.3c-14,0-23.9,22.5-26.4,33
		c-3.5,15-6.7,27.4-14.3,39.6c-1.7,2.8-3.8,5.5-5.8,8.1c-3.4,4.4-6.9,9-8.9,14.1c-3.1,8-4.5,16.5-4.2,25.1
		c0.2,7.1,1.7,14.2,4.5,20.8c5.6,12.6,18.1,22.9,33.4,27.6c12.5,3.9,27.1,4.5,44.5,1.8c17.1-2.6,29.7-7.1,39.6-14.3
		c12.3-8.9,19.9-22.5,19.7-35.5c-0.1-9.9-4.2-19-8.2-27.9c-1.6-3.6-3.3-7.4-4.6-11.1c-4.1-11.1-5.3-23.2-3.8-39.2
		c1.2-13.8-3.8-26.2-15-37c-6.8-6.6-22.3-15-33.8-13.6c-4.3,0.3-8.1,2.6-10.4,6.2l-0.2,0.3c-0.3,0.6-0.8,1.2-1.4,1.6
		c-1,0.6-2.3,0.8-3.4,0.5h-0.5C146.8,140.4,146.5,140.3,146.2,140.3L146.2,140.3z" fill="#231F20"></path>
    <path class="st2" d="M193,233.6c0,0,65.2-29.7,120.9-31.3c21.6-0.6,68.7,9.6,76.9,14.4l1.1,17.2c0,0-90.1-2.7-128.8,8.6
		c-24.9,7.3-50.8,39-50.8,39L193,233.6z" fill="#FFFFFF"></path>
    <path class="st1" d="M212.3,282.2h-0.1c-0.2,0-0.4-0.2-0.5-0.4l-19.3-47.9c-0.1-0.3,0-0.7,0.4-0.9c0.7-0.3,66-29.8,121.2-31.4
		c21.4-0.6,68.7,9.5,77.3,14.5c0.2,0.1,0.3,0.3,0.4,0.6l1.1,17.2c0,0.2-0.1,0.4-0.2,0.5c-0.1,0.2-0.3,0.2-0.5,0.2
		c-0.9,0-90.4-2.6-128.6,8.6c-24.4,7.2-50.2,38.4-50.5,38.8C212.7,282.1,212.5,282.2,212.3,282.2z M193.9,234l18.6,46.2
		c4.5-5.2,27.9-31.7,50.4-38.3c36.5-10.7,119.4-8.9,128.3-8.7l-1-16.1c-9.1-4.9-55.7-14.7-76.2-14.1
		C261.9,204.5,200.7,231,193.9,234z" fill="#231F20"></path>
    <path class="st0"
      d="M119,332.6l15.6,62.8h112l-10.9-110.3c0,0-24.6-38.7-27.7-59.9L106,251.6C106,251.6,126.4,295.1,119,332.6z"></path>
    <path class="st2" d="M181,222.5l5.7,23.6c0,0-0.5,11.5-17.2,11.7s-21.8-10.1-21.8-10.1l-9.1-44.5c0,0,21.4-19.3,11.6-43.8
		c0,0,14.6,17.6,37.2,8.7c0,0,6,22.6,7.1,35.2S181,222.5,181,222.5z" fill="#FFFFFF"></path>
    <path class="st1" d="M169.2,258.5c-16.7,0-21.8-10.1-22-10.5c0-0.1,0-0.1-0.1-0.2l-9.1-44.5c0-0.2,0-0.5,0.2-0.7
		c0.2-0.2,20.9-19.3,11.4-43c-0.1-0.4,0-0.8,0.4-0.9c0.3-0.1,0.6,0,0.8,0.2c0.1,0.2,14.5,17.1,36.4,8.5c0.2-0.1,0.4-0.1,0.6,0
		c0.2,0.1,0.3,0.3,0.4,0.4c0.1,0.2,6,22.8,7.2,35.3c1.1,11.6-10.9,18.2-13.6,19.6l5.6,23.1c0,0.1,0,0.1,0,0.2
		c0,0.1-0.7,12.2-17.9,12.4H169.2z M148.4,247.5c0.5,0.9,5.7,9.7,20.7,9.7h0.3c15.2-0.1,16.4-9.8,16.5-10.9l-5.7-23.5
		c-0.1-0.3,0.1-0.7,0.4-0.8c0.1-0.1,14.4-6.4,13.3-18.4c-1-11.2-5.9-30.4-6.9-34.4c-17.4,6.4-30.1-2.5-35.1-7
		c6.7,21.7-10.1,39-12.5,41.4L148.4,247.5z" fill="#231F20"></path>
    <path class="st2" d="M145.9,200.1c-2.6-4.8-9.8-7.5-14.9-5.4c-6.6,2.8-4.6,10.5-1.2,15c4.3,5.7,12.3,6.8,18,2.5
		c0.1,0,0.1-0.1,0.2-0.2" fill="#FFFFFF"></path>
    <path class="st1" d="M140,215.5c-0.6,0-1.2,0-1.7-0.1c-3.6-0.5-6.8-2.4-9-5.2c-2-2.7-4.1-7.2-3-11.1c0.6-2.3,2.3-4.1,4.5-4.9
		c5.4-2.2,13,0.5,15.7,5.7c0.2,0.3,0.1,0.8-0.3,0.9c-0.3,0.2-0.8,0.1-0.9-0.3l0,0c-2.4-4.6-9.2-7.1-14-5.1c-1.8,0.7-3.2,2.1-3.7,4
		c-0.8,3.2,0.8,7.3,2.8,9.9c4.1,5.3,11.7,6.4,17,2.3c0,0,0.1-0.1,0.1-0.1c0.3-0.2,0.7-0.2,1,0.1s0.2,0.7-0.1,1
		C146,214.5,143,215.5,140,215.5z" fill="#231F20"></path>
    <path class="st2" d="M171.1,186.3c0,0,11.7,9.9,10.4,12.5s-7.2,2.9-7.2,2.9" fill="#FFFFFF"></path>
    <path class="st1"
      d="M174.3,202.4c-0.4,0-0.7-0.3-0.7-0.7c0-0.4,0.3-0.7,0.7-0.7c1.5,0,5.6-0.6,6.6-2.5c0.6-1.3-4.8-7.1-10.2-11.7
		c-0.3-0.3-0.3-0.7-0.1-1c0.2-0.3,0.7-0.3,1-0.1c0,0,0,0,0,0c2.9,2.4,12,10.4,10.6,13.4S175,202.4,174.3,202.4L174.3,202.4z"
      fill="#231F20"></path>
    <ellipse class="st1" transform="matrix(0.9922 -0.1246 0.1246 0.9922 -21.2991 24.0282)" cx="181.4" cy="182.2" rx="2"
      ry="4.6" fill="#231F20"></ellipse>
    <ellipse class="st1" transform="matrix(0.9922 -0.1246 0.1246 0.9922 -21.7785 21.5005)" cx="160.9" cy="184.8" rx="2"
      ry="4.6" fill="#231F20"></ellipse>
    <path class="st1" d="M181,222.5c0,0-8.6,3.8-21-0.5c0,0,8.1,15.6,24.1,13.3L181,222.5z" fill="#231F20"></path>
    <path class="st1"
      d="M180.9,236.2c-14.2,0-21.4-13.8-21.5-13.9c-0.1-0.3-0.1-0.6,0.1-0.8c0.2-0.2,0.5-0.3,0.8-0.2
		c12,4.2,20.4,0.6,20.5,0.6c0.2-0.1,0.4-0.1,0.6,0c0.2,0.1,0.3,0.3,0.4,0.5l3.1,12.8c0.1,0.4-0.1,0.8-0.5,0.8c0,0,0,0-0.1,0
		C183.1,236.2,182,236.2,180.9,236.2z M161.6,223.2c2.5,3.8,9.8,12.8,21.6,11.5l-2.7-11.2C178.2,224.3,171.2,226.1,161.6,223.2z"
      fill="#231F20"></path>
    <path class="st1" d="M174.5,219.5c-1.3,0-2.5-0.4-3.7-1.1c-6.8-3.7-7.2-14.7-7.2-15.1c0-0.2,0.1-0.4,0.2-0.6
		c0.2-0.1,0.4-0.2,0.6-0.2l17.3,2.9c0.4,0.1,0.6,0.4,0.6,0.8c-0.5,6.4-2.4,11-5.3,12.6C176.2,219.3,175.3,219.5,174.5,219.5z
		 M165.1,204.1c0.2,2.6,1.4,10.3,6.4,13.1c1.8,1,3.5,1.2,4.8,0.4c2.3-1.3,4-5.3,4.6-10.8L165.1,204.1z" fill="#231F20">
    </path>
    <path class="st2" d="M362.5,151.5c-1.2-0.5-2.6-0.4-3.7,0.2c0.2-4.5-3.6-8.4-7.8-9.9s-8.9-1.2-13.4-1.1s-9.2,0-13.2-2.1
		c-6.3-3.4-9.5-11.4-16.2-14c-5.4-2-11.8,0.3-15.4,4.8s-4.8,10.6-4,16.3c1.2,9.4,6.8,18.5,13.1,25.4c3.5,3.5,7.2,6.6,11.3,9.4
		l8.3,6.2c8.5,6.3,20.6,12.6,31.6,9.3c7.4-2.2,11.7-9.8,13.7-16.7c1.1-3.9,1.6-7.9,1.3-11.9c-0.3-3.7-0.4-9.6-2.1-12.8
		C365.1,153.1,363.9,152.1,362.5,151.5z" fill="#FFFFFF"></path>
    <path class="st1" d="M346.6,197.5c-9.5,0-19-5.3-25.7-10.3l-8.3-6.2c-4.1-2.8-7.8-6-11.3-9.5c-4.4-4.7-11.9-14.2-13.3-25.8
		c-0.8-6.4,0.7-12.6,4.2-16.8c4-4.9,10.8-7,16.2-5c3.8,1.4,6.5,4.5,9.1,7.5c2.1,2.5,4.4,5,7.2,6.5c3.9,2.1,8.7,2.2,12.9,2.1h1.1
		c4.2-0.1,8.6-0.3,12.6,1.2c3.9,1.4,7.9,4.9,8.3,9.5c1.1-0.3,2.2-0.2,3.3,0.2c1.6,0.6,2.9,1.7,3.7,3.2c1.5,2.8,1.8,7.4,2.1,11
		c0,0.8,0.1,1.5,0.2,2.1c0.3,4.1-0.1,8.2-1.3,12.2c-1.2,4.3-5,14.5-14.2,17.2C351,197.2,348.8,197.5,346.6,197.5z M303.9,124.6
		c-4.2,0.1-8.1,2-10.8,5.2c-3.2,4-4.6,9.7-3.9,15.8c1,8.1,5.7,17.2,13,25c3.4,3.4,7.2,6.6,11.1,9.3l8.3,6.1c8.1,6,20,12.4,31,9.2
		c8.5-2.5,12.1-12.2,13.3-16.2c1.1-3.8,1.5-7.7,1.3-11.7c-0.1-0.7-0.1-1.4-0.2-2.1c-0.2-3.5-0.5-7.9-1.9-10.4
		c-0.7-1.2-1.7-2.1-3-2.6l0,0c-1-0.4-2.2-0.4-3.1,0.2c-0.2,0.1-0.5,0.1-0.7,0c-0.2-0.1-0.3-0.4-0.3-0.6c0.2-4.3-3.6-7.9-7.4-9.2
		s-8-1.2-12.1-1.1h-1.1c-4.4,0.1-9.4,0.1-13.6-2.2c-3-1.6-5.3-4.3-7.6-6.9c-2.6-3-5.1-5.8-8.5-7.1
		C306.6,124.8,305.3,124.6,303.9,124.6z" fill="#231F20"></path>
    <path class="st2" d="M303.1,211.5l-3.3,25.8c0,0,2.5,13.7,18.5,12.5c9.6-0.8,18.3-5.9,23.7-13.8l6.9-43.4c0,0-10.4-7.9-3-32.1
		c0,0-22.5-0.5-44.9-7.1c0,0-7.3,31.9-7.4,44.1S303.1,211.5,303.1,211.5z" fill="#FFFFFF"></path>
    <path class="st1" d="M316.3,250.5c-14.6,0-17.2-13-17.2-13.1c0-0.1,0-0.1,0-0.2l3.2-25.2c-2.2-0.7-9.6-3.9-9.5-14.7
		c0.1-12.1,7.1-42.9,7.4-44.2c0-0.2,0.2-0.4,0.3-0.4c0.2-0.1,0.4-0.1,0.5-0.1c22,6.5,44.5,7,44.7,7.1c0.4,0,0.7,0.3,0.7,0.7
		c0,0.1,0,0.1,0,0.2c-3.7,12.2-2.8,20.1-1.3,24.6c1.6,4.8,4.1,6.8,4.1,6.8c0.2,0.2,0.3,0.4,0.3,0.7l-6.9,43.4c0,0.1,0,0.2-0.1,0.3
		c-0.1,0.1-8.1,12.9-24.2,14.2C317.6,250.5,317,250.5,316.3,250.5z M300.5,237.3c0.3,1.3,3.1,12.9,17.7,11.8s22.2-12.1,23-13.4
		l6.8-42.9c-1.8-1.6-9.5-10.2-3.2-31.8c-14.7-0.7-29.2-3-43.4-6.9c-1.1,4.8-7.2,32.2-7.2,43.2c-0.1,11.5,8.9,13.5,9,13.5
		c0.4,0.1,0.6,0.4,0.6,0.8L300.5,237.3z" fill="#231F20"></path>
    <path class="st2" d="M339.9,190.3c0.9-2,2.4-3.7,4.3-4.8c1.8-0.9,3.8-1.6,5.8-1.8c1.1-0.3,2.2-0.3,3.3-0.1c0.8,0.2,1.5,0.6,2.1,1.1
		c1.5,1.1,2.6,2.7,3.1,4.5c0.2,1.5,0,3-0.5,4.4c-0.5,1.6-1.1,3.1-2,4.5c-3.6,5.8-11.2,7.5-17,3.8c-0.1,0-0.1-0.1-0.2-0.1"
      fill="#FFFFFF"></path>
    <path class="st1" d="M345.6,204.6c-2.5,0-5-0.7-7.1-2.1c-0.3-0.2-0.4-0.6-0.2-1c0,0,0,0,0,0c0.2-0.3,0.7-0.4,1-0.2c0,0,0,0,0,0
		c2.6,1.7,5.8,2.3,8.8,1.6c3-0.7,5.7-2.5,7.4-5.1c0.8-1.4,1.4-2.8,1.9-4.3c0.5-1.3,0.7-2.7,0.5-4.1c-0.4-1.6-1.5-3.1-2.8-4
		c-0.5-0.4-1.2-0.8-1.8-1c-1-0.2-2-0.2-3,0.1c-2,0.3-3.9,0.9-5.6,1.8c-1.8,1-3.2,2.6-4,4.5c-0.2,0.4-0.6,0.5-0.9,0.4
		c-0.4-0.2-0.5-0.6-0.4-0.9l0,0c0.9-2.2,2.5-4,4.6-5.1c1.9-1,3.9-1.6,6-1.9c1.2-0.3,2.4-0.3,3.6,0c0.8,0.3,1.6,0.7,2.3,1.3
		c1.7,1.2,2.9,2.9,3.3,4.9c0.2,1.6,0,3.2-0.5,4.8c-0.5,1.6-1.1,3.2-2,4.7c-1.9,2.9-4.8,5-8.2,5.8
		C347.5,204.5,346.6,204.6,345.6,204.6z" fill="#231F20"></path>
    <path class="st1" d="M300.9,226.2c5.9-0.3,11.6-2.2,16.5-5.4c7.8-5.4,7.9-9.3,7.9-9.3s-11.9,4.2-21.6,0.6L300.9,226.2z"
      fill="#231F20"></path>
    <path class="st1" d="M300.9,226.9c-0.2,0-0.4-0.1-0.5-0.2c-0.1-0.2-0.2-0.4-0.1-0.6l2.7-14.2c0.1-0.4,0.4-0.6,0.8-0.6
		c0,0,0.1,0,0.1,0c9.4,3.5,21-0.5,21.2-0.6c0.4-0.1,0.8,0.1,0.9,0.4c0,0.1,0,0.2,0,0.2c0,0.2-0.1,4.3-8.2,9.9
		C312.8,224.7,306.9,226.7,300.9,226.9z M304.2,212.9l-2.4,12.6c5.5-0.4,10.7-2.2,15.2-5.3c5-3.5,6.7-6.2,7.3-7.7
		C321.1,213.4,312.1,215.6,304.2,212.9L304.2,212.9z" fill="#231F20"></path>
    <path class="st2" d="M317.6,174.8c0,0-10.4,10.4-8.9,12.8s7.1,2.1,7.1,2.1" fill="#FFFFFF"></path>
    <path class="st1" d="M315.1,190.4c-1.7,0-5.6-0.2-7-2.5c-1.6-2.7,6.5-11.1,9-13.7c0.3-0.3,0.7-0.3,1,0c0.3,0.3,0.3,0.7,0,1
		c-5.4,5.4-9.5,10.9-8.8,11.9c1,1.7,5,1.9,6.5,1.8c0.4,0,0.7,0.2,0.7,0.6c0,0,0,0,0,0c0,0.4-0.3,0.7-0.7,0.7c0,0,0,0,0,0
		L315.1,190.4z" fill="#231F20"></path>
    <path class="st2" d="M244.2,293.3l8.7-45.4l-29.9-5.7l-8.7,45.4c-1.4,7.4,2.8,14.7,9.9,17.2l-5.2,27.1l-14.9,9.4l29.9,5.7
		l-10.4-14.2l5.2-27.1C236.3,305.9,242.8,300.6,244.2,293.3z" fill="#FFFFFF"></path>
    <path class="st1"
      d="M234,347.6h-0.1l-29.9-5.7c-0.3,0-0.5-0.3-0.6-0.5c-0.1-0.3,0.1-0.6,0.3-0.7l14.7-9.2l5-26.2
		c-7.1-2.8-11.2-10.3-9.7-17.8l8.7-45.4c0-0.2,0.1-0.3,0.3-0.4c0.2-0.1,0.3-0.1,0.5-0.1l29.9,5.7c0.4,0.1,0.6,0.4,0.6,0.8
		c0,0,0,0,0,0l-8.7,45.4c-1.4,7.5-8,12.9-15.6,12.9l0,0l-5,26.2l10.2,14c0.2,0.2,0.2,0.6,0,0.8C234.4,347.5,234.2,347.6,234,347.6z
		 M206,340.8l26.4,5.1l-9.4-12.8c-0.1-0.2-0.2-0.3-0.1-0.5l5.2-27.1c0.1-0.3,0.4-0.6,0.7-0.6c7.2,0.3,13.5-4.7,14.8-11.8l0,0
		l8.6-44.7l-28.6-5.4l-8.6,44.7c-1.4,7,2.6,14,9.4,16.4c0.3,0.1,0.5,0.4,0.5,0.8l-5.2,27.1c0,0.2-0.1,0.4-0.3,0.5L206,340.8z"
      fill="#231F20"></path>
    <path class="st3" d="M220,274.3l-2.5,13c-1.3,6.6,3.1,12.9,9.6,14.2c6.6,1.3,12.9-3.1,14.2-9.6l0,0l2.1-11.1c0.4-1.9,1.6-4.8,0-6.3
		c-0.9-0.8-2.3-0.8-3.2-1.6c-0.8-0.7-0.9-1.9-1.9-2.4c-0.8-0.3-1.7-0.2-2.4,0.4c-0.7,0.5-1.3,1.1-1.9,1.7c-2.2,1.8-5.1,2.2-7.9,2.2
		C225.5,274.6,220.1,274,220,274.3z" fill="#D1D3D4"></path>
    <path class="st3" d="M245.3,264.8c-0.7-5-6.2,0.3-4.2,3.1c0.3,0.4,0.6,0.7,1.1,0.8c0.6,0.1,1.1-0.1,1.6-0.4
		C244.8,267.5,245.4,266.1,245.3,264.8z" fill="#D1D3D4"></path>
    <path class="st2" d="M290.2,287.5l-8.8-45.4l-29.9,5.8l8.8,45.4c1.4,7.4,8,12.6,15.5,12.3l5.2,27.1l-10.4,14.2l29.9-5.8l-15-9.3
		l-5.3-27C287.5,302.3,291.7,294.9,290.2,287.5z" fill="#FFFFFF"></path>
    <path class="st1" d="M270.7,347.6c-0.4,0-0.7-0.3-0.7-0.7c0-0.2,0-0.3,0.1-0.4l10.2-14l-5.1-26.2h-0.1c-7.6,0-14.2-5.4-15.6-12.9
		l-8.8-45.4c-0.1-0.4,0.2-0.7,0.6-0.8l29.9-5.8c0.4-0.1,0.7,0.2,0.8,0.6l8.8,45.4c1.5,7.5-2.6,15-9.7,17.8l5.1,26.2l14.7,9.2
		c0.3,0.2,0.4,0.6,0.2,1c-0.1,0.2-0.3,0.3-0.5,0.3l-29.9,5.8L270.7,347.6z M275.8,304.9c0.3,0,0.6,0.2,0.7,0.6l5.2,27
		c0,0.2,0,0.4-0.1,0.5l-9.3,12.8l26.4-5.1l-13.5-8.4c-0.2-0.1-0.3-0.3-0.3-0.5l-5.2-27.1c-0.1-0.3,0.1-0.7,0.5-0.8
		c6.8-2.4,10.8-9.4,9.4-16.4l0,0l-8.7-44.6l-28.5,5.5l8.7,44.6C262.4,300.2,268.7,305.2,275.8,304.9L275.8,304.9z"
      fill="#231F20"></path>
    <path class="st3" d="M284.5,274.3l-0.1-0.1c-0.6-0.5-3.4,0-4.3-0.1c-1.8-0.2-3.6-0.7-5.3-1.4c-1.5-0.6-3-1.5-4.6-1.4
		c-1.4,0.1-2.8,0.9-4.2,0.7c-1-0.3-1.9-0.8-2.7-1.4c-0.8-0.6-2-0.6-2.8,0c-0.3,0.3-0.5,0.6-0.6,1c-0.8,2,0.1,4.1,0.5,6.1l1.2,5.9
		l1.6,8.2c1.3,6.6,7.8,10.8,14.3,9.4c6.4-1.3,10.7-7.6,9.5-14l-1.8-9.3C285.1,277.3,285,275,284.5,274.3z" fill="#D1D3D4">
    </path>
    <path class="st2"
      d="M106,251.6c0,0-16,7.4-20.2,24.6c-8.3,34.3-0.7,126.6,5.3,134.3s12.9,3.3,34.4-4.4c23.3-8.3,100-58.3,100-58.3
		s15-10.1,15.6-13.9s-1.6-4.4-1.6-4.4s7.1-6,3.8-9.3c0,0,3.3-6.3-0.3-10.1c-1.6-1.7,3.8-9.4-1.4-9.8c-1.1,0-2.2,0.4-3.2,1
		c-4.5,2.5-13.9,3.2-16,4.4c-0.2-1.1,1.7-7.6,0-8c-6.3-1.6-18.6,27.9-18.6,27.9s-77.2,26.6-77.2,25.5S122.6,269.3,106,251.6z"
      fill="#FFFFFF"></path>
    <path class="st1" d="M98.7,415.2c-3.3,0-5.8-1.3-8.2-4.3c-6.1-7.7-14-99.5-5.4-134.9c4.2-17.4,20.4-25,20.6-25.1
		c0.3-0.1,0.6-0.1,0.8,0.1c16.1,17.1,20.5,90.8,20.9,99.2c5.8-1.3,47.7-15.5,76-25.3c0.6-1.4,3.4-8,6.8-14.3
		c5.4-10,9.4-14.5,12.4-13.7c1.8,0.5,1.3,3.7,0.8,6.5c0,0.4-0.1,0.7-0.2,1.1c1.1-0.3,2.6-0.6,4.4-1c3.5-0.7,7.9-1.5,10.5-3
		c1.1-0.7,2.3-1.1,3.6-1.1c0.9,0,1.8,0.5,2.4,1.2c1,1.4,0.4,3.7-0.1,5.7c-0.3,1.1-0.8,2.8-0.4,3.2c3.3,3.6,1.3,8.9,0.6,10.5
		c0.5,0.7,0.8,1.5,0.7,2.4c-0.1,2.7-2.9,5.6-4.2,6.9c0.7,0.6,1.5,2,1.2,4.6c-0.6,4-14.3,13.4-15.9,14.4
		c-0.8,0.5-77.1,50.1-100.2,58.4c-3.2,1.2-6.2,2.2-8.8,3.2C108.6,413.1,103,415.2,98.7,415.2z M105.8,252.5
		c-2.6,1.4-15.6,8.8-19.3,23.9c-8.2,33.9-0.7,126.3,5.1,133.7c4.8,6.1,10.2,4.1,24.8-1.4c2.6-1,5.6-2.1,8.8-3.2
		c23-8.2,99.1-57.8,99.9-58.3c5.7-3.8,14.9-10.9,15.3-13.5c0.4-3.1-1.1-3.6-1.1-3.6c-0.2-0.1-0.4-0.3-0.5-0.5
		c-0.1-0.2,0-0.5,0.2-0.7c1.2-1,4.3-4.2,4.4-6.6c0-0.6-0.2-1.3-0.7-1.7c-0.2-0.2-0.3-0.5-0.1-0.8c0-0.1,3-5.9-0.2-9.3
		c-0.9-0.9-0.4-2.6,0.1-4.5c0.5-1.7,1-3.6,0.4-4.5c-0.3-0.4-0.9-0.6-1.4-0.6c-1,0-2,0.4-2.8,1c-2.8,1.6-7.3,2.4-10.9,3.1
		c-1.7,0.2-3.4,0.7-5.1,1.2c-0.4,0.2-0.8,0-0.9-0.3c0,0,0-0.1-0.1-0.2c0-0.8,0.1-1.7,0.3-2.5c0.2-1.2,0.8-4.5,0.2-5
		c-4.1-1-13.1,16.3-17.7,27.5c-0.1,0.2-0.2,0.3-0.4,0.4c-76.5,26.3-77.5,25.7-77.8,25.4c-0.2-0.1-0.3-0.4-0.3-0.6
		C126,350.3,122.1,270.8,105.8,252.5L105.8,252.5z" fill="#231F20"></path>
    <path class="st1" d="M102.8,358.9c-0.4,0-0.7-0.3-0.7-0.7c0-0.3,0.2-0.6,0.5-0.7c2-0.5,23.6-7,23.8-7.1c0.4-0.1,0.8,0.1,0.9,0.4
		c0.1,0.4-0.1,0.8-0.4,0.9c0,0,0,0-0.1,0c-0.9,0.3-21.9,6.6-23.9,7.1L102.8,358.9z" fill="#231F20"></path>
    <path class="st2" d="M426.5,286.1c0,0-4.4,66.6-27.2,86.3c-15.8,13.6-27.7,2.9-43.8-5c-11-5.5-21.4-12-31.2-19.4
		c-3.8-2.9-7.8-5.6-11.9-8c-6.8-3.8-14.1-6.1-22.6-5.1c-4.8,0.6-14.6,4.4-18.2-0.5c-1-1.5-1.1-3.8,0.4-4.9c-1.3-0.7-2.3-1.7-3.1-2.9
		c-0.6-1.3-0.4-3.1,0.9-3.8c-2.2-1.3-3.1-4.2-1.9-6.5c-4.2-1.1-2.8-5.5,0.5-6.5c8.2-2.5,16.5-4.3,25-5.5c0,0,22,4.2,32,8.4
		s48.4,17.1,48.4,17.1l8.2-48.3" fill="#FFFFFF"></path>
    <path class="st1" d="M383.9,379.6c-7.1,0-13.9-3.7-21.3-7.7c-2.4-1.3-4.9-2.6-7.5-3.9c-11-5.5-21.5-12-31.3-19.5
		c-3.8-2.9-7.7-5.6-11.8-8c-7.8-4.3-14.8-5.9-22.2-5c-1,0.1-2.4,0.4-3.8,0.7c-5.1,1.1-12,2.7-15.1-1.6c-1.1-1.5-1.2-3.6-0.1-5.2
		c-1.1-0.7-2-1.6-2.6-2.7c-0.7-1.3-0.5-2.8,0.3-4c-1.7-1.5-2.4-3.9-1.7-6.1c-1.4-0.4-2.3-1.7-2.4-3.2c0.1-2.1,1.6-3.9,3.6-4.4
		c8.2-2.5,16.6-4.3,25.1-5.5h0.2c0.2,0,22.2,4.3,32.1,8.4c9,3.8,42,14.9,47.5,16.8l8-47.5c0.1-0.4,0.5-0.6,0.9-0.5
		c0.3,0.1,0.5,0.4,0.5,0.7l-8.2,48.3c0,0.2-0.2,0.4-0.3,0.5c-0.2,0.1-0.4,0.1-0.6,0.1c-0.4-0.1-38.5-13-48.4-17.1
		c-9.4-3.9-30-8-31.7-8.3c-8.4,1.2-16.7,3-24.7,5.5c-1.4,0.4-2.5,1.6-2.6,3.1c0,1,0.8,1.7,2.1,2.1c0.2,0.1,0.4,0.2,0.5,0.4
		c0.1,0.2,0.1,0.4,0,0.6c-1,2-0.3,4.4,1.6,5.5c0.2,0.1,0.4,0.4,0.4,0.6c0,0.3-0.1,0.5-0.4,0.6c-0.9,0.7-1.1,1.9-0.6,2.8
		c0.7,1.1,1.7,2,2.9,2.6c0.2,0.1,0.3,0.3,0.3,0.6c0,0.2-0.1,0.4-0.3,0.6c-1.1,0.9-1,2.8-0.2,3.9c2.5,3.5,8.7,2.1,13.6,1
		c1.4-0.3,2.8-0.6,3.9-0.8c7.6-0.9,15,0.7,23,5.2c4.2,2.4,8.2,5.1,12,8c9.7,7.4,20.1,13.9,31,19.3c2.6,1.3,5.1,2.6,7.5,3.9
		c12.6,6.9,22.6,12.3,35.5,1.1c22.4-19.2,26.9-85.2,27-85.8c0-0.4,0.3-0.7,0.7-0.7c0,0,0,0,0,0c0.4,0,0.7,0.4,0.7,0.7c0,0,0,0,0,0
		c-1,12-2.7,24-5.1,35.9c-5.3,25.5-12.8,42.7-22.4,50.9C394.1,377.8,388.9,379.6,383.9,379.6z" fill="#231F20"></path>
    <path class="st2" d="M385,230.1l9.6,21.3c0.4,1.1,1.1,2.1,2,2.8c0.9,0.7,2.3,0.6,3.1-0.3c0.4-0.8,0.4-1.8,0-2.6
		c-0.7-2.3-1.6-4.4-2.7-6.6l9.1,11.5c1.4,1.7,2.6,4,5,4.2c0.3,0,0.7,0,1-0.2c0.6-0.4,0.8-1.2,0.7-1.9c-0.1-0.8-0.4-1.6-0.8-2.3
		c0.7,0.6,1.5,1,2.4,1.2c1,0.2,2.7-0.2,2.3-1.6c-0.5-1.3-1.2-2.6-2.1-3.7c0.6,0.8,1.4,1.5,2.3,1.9c0.9,0.1,1.7-0.5,1.9-1.4
		c0-0.3,0-0.5-0.1-0.8c-0.2-0.6-0.6-1.2-1-1.7c0.5,0.6,1.2,1.2,2,1c0.7-0.2,1.2-0.9,1.1-1.6c-0.1-0.7-0.3-1.4-0.7-2
		c-1.2-2.1-6-9.2-7-10.9c-2-3.2-4.3-6.1-6.9-8.9c-4.5-4.5-9.6-8.2-15.3-10.9" fill="#FFFFFF"></path>
    <path class="st1" d="M411.4,261.1h-0.3c-2.4-0.2-3.7-2-4.9-3.6c-0.2-0.3-0.5-0.6-0.7-0.9l-5.9-7.4c0.2,0.6,0.4,1.2,0.6,1.8
		c0.5,1,0.4,2.2-0.1,3.2c-0.4,0.6-0.9,0.9-1.6,1.1c-0.9,0.2-1.8,0-2.5-0.5c-1-0.8-1.7-1.9-2.2-3.1l-9.6-21.3
		c-0.1-0.4,0.1-0.8,0.4-0.9c0.3-0.1,0.7,0,0.9,0.3l9.6,21.3c0.3,1,0.9,1.8,1.7,2.5c0.4,0.3,0.9,0.4,1.4,0.3c0.3,0,0.5-0.2,0.7-0.4
		c0.2-0.7,0.2-1.4-0.1-2.1c-0.7-2.2-1.6-4.4-2.6-6.5c-0.2-0.3,0-0.8,0.3-0.9c0.3-0.1,0.6-0.1,0.8,0.2l9.1,11.5
		c0.2,0.3,0.5,0.6,0.7,0.9c1.1,1.5,2.1,2.9,3.9,3c0.2,0,0.4,0,0.6-0.1c0.3-0.2,0.4-0.7,0.3-1.2c-0.1-0.7-0.3-1.4-0.7-2
		c-0.3-0.3-0.3-0.7,0-1s0.7-0.3,1,0c0.6,0.5,1.3,0.9,2.1,1.1c0.5,0.1,1,0,1.4-0.3c0,0,0.1-0.1,0-0.4c-0.5-1.3-1.1-2.4-2-3.5l0,0
		c-0.2-0.3-0.2-0.7,0.1-1c0,0,0,0,0,0c0.3-0.2,0.7-0.2,1,0.1c0,0,0,0,0,0c0.5,0.7,1.1,1.3,1.9,1.6c0.3,0.1,0.5,0,0.7-0.2
		c0.3-0.3,0.4-0.7,0.2-1.1c-0.2-0.5-0.5-1-0.9-1.5c-0.2-0.3-0.2-0.7,0.1-0.9c0.3-0.3,0.7-0.3,1,0c0.4,0.4,0.9,0.9,1.4,0.8
		s0.6-0.6,0.5-0.9c-0.1-0.6-0.3-1.2-0.6-1.7c-0.8-1.4-3.3-5.2-5.1-8c-0.9-1.3-1.6-2.4-1.9-2.9c-5.2-8.5-12.8-15.3-21.9-19.6
		c-0.3-0.2-0.5-0.6-0.3-0.9c0,0,0,0,0,0c0.2-0.3,0.6-0.5,0.9-0.3c9.3,4.4,17.1,11.3,22.4,20.1c0.3,0.5,1,1.6,1.9,2.9
		c1.8,2.8,4.3,6.6,5.1,8c0.5,0.7,0.7,1.5,0.8,2.3c0.1,1.1-0.6,2.1-1.7,2.3c-0.1,0-0.3,0-0.5,0c0.2,0.8-0.1,1.6-0.6,2.2
		c-0.4,0.5-1.1,0.7-1.7,0.6c0.1,0.3,0.2,0.6,0.3,0.9c0.2,0.6,0.1,1.3-0.4,1.8c-0.7,0.7-1.7,0.9-2.7,0.7c-0.3-0.1-0.5-0.1-0.8-0.2
		c0,0.2,0.1,0.3,0.1,0.5c0.2,1-0.2,2-1,2.6C412.2,260.9,411.8,261.1,411.4,261.1z" fill="#231F20"></path>
    <path class="st1" d="M312,203.1c-2.8,0.1-5.5-0.9-7.6-2.9c-4.2-4.4-3.1-12-3.1-12.4c0.1-0.4,0.4-0.6,0.8-0.6c0,0,0,0,0,0
		c0.4,0.1,0.6,0.4,0.6,0.8c0,0.1-1,7.3,2.7,11.2c1.9,1.9,4.7,2.7,8.4,2.3c11.5-1.3,16.7-18.2,16.8-18.4c0.1-0.4,0.5-0.6,0.8-0.5
		s0.6,0.5,0.5,0.8c0,0,0,0,0,0.1c-0.2,0.7-5.5,18-17.9,19.4C313.3,203.1,312.7,203.1,312,203.1z" fill="#231F20"></path>
    <path class="st2" d="M304.9,169.3c0,0,1.9-3.5,4.5-3.7s3.7,3.7,3.7,3.7" fill="#FFFFFF"></path>
    <path class="st1" d="M304.9,170c-0.1,0-0.2,0-0.3-0.1c-0.3-0.2-0.5-0.6-0.3-0.9c0,0,0-0.1,0-0.1c0.1-0.1,2-3.8,5.1-4.1
		c3.2-0.3,4.4,4,4.4,4.2c0.1,0.4-0.1,0.8-0.5,0.9c-0.4,0.1-0.8-0.1-0.9-0.5c0,0-0.9-3.3-2.9-3.2c-2.2,0.2-3.9,3.3-4,3.3
		C305.4,169.8,305.2,170,304.9,170z" fill="#231F20"></path>
    <path class="st2" d="M321.2,173c0,0,1.9-3.5,4.5-3.7s3.7,3.7,3.7,3.7" fill="#FFFFFF"></path>
    <path class="st1" d="M321.2,173.7c-0.1,0-0.2,0-0.3-0.1c-0.3-0.2-0.5-0.6-0.3-0.9c0,0,0,0,0,0c0.1-0.2,2.1-3.8,5.1-4.1
		c3.2-0.2,4.4,4,4.4,4.2c0.1,0.4-0.1,0.7-0.5,0.8c0,0,0,0,0,0c-0.4,0.1-0.7-0.1-0.9-0.5c0,0-0.9-3.3-3-3.2c-2.2,0.2-3.9,3.3-3.9,3.3
		C321.7,173.5,321.4,173.7,321.2,173.7z" fill="#231F20"></path>
  </g>
  <g id="PInata">
    <path class="st3"
      d="M63.9,299c-0.4-0.3-0.6-0.8-0.8-1.2c-0.1-0.3-0.1-0.6-0.2-0.9c0-0.1,0-0.2,0-0.3c0-0.2,0-0.4,0-0.6
		c0-1.4-0.1-2.8-0.4-4.1c-0.8-2.5-3.8-5.5-6.6-3.6c-0.7,0.4-0.9,1.3-0.5,2c0.4,0.7,1.3,0.9,2,0.5c0,0,0,0,0,0l0.2-0.1h0.1H58
		l0.2,0.1l0.3,0.1h0.1l0,0.1c0.1,0.1,0.2,0.2,0.3,0.3c0.1,0.1,0.2,0.2,0.2,0.3l0.2,0.2c0.1,0.2,0.3,0.5,0.4,0.7l0.1,0.2
		c0,0.1,0.1,0.3,0.1,0.4c0,0.1,0,0.2,0,0.3v0.4c0.2,2.6,0,5.5,2,7.4c0.6,0.5,1.5,0.5,2.1-0.1C64.4,300.4,64.4,299.5,63.9,299z"></path>
    <path class="st3" d="M437.1,200.2c-0.2-0.8-1-1.2-1.8-1c-3.3,1.3-6.9,2.7-9.2,5.6c-1,1.3-1.8,2.8-2.4,4.3c-0.6,1.2-1.2,2.4-2.4,2.8
		c-1.8,0.6-1,3.4,0.8,2.8c3.4-1.1,4-4.7,5.7-7.3c1.8-2.9,5.3-4.2,8.4-5.4C436.9,201.7,437.3,200.9,437.1,200.2z"></path>
    <path class="st3"
      d="M146.9,113.1c-3.5-1.7-7.4-2.4-11.3-2.1c-0.8,0-1.4,0.7-1.5,1.4c0,0.8,0.7,1.5,1.5,1.5
		c3.4-0.3,6.7,0.3,9.8,1.7c0.7,0.4,1.6,0.2,2-0.5C147.9,114.4,147.6,113.5,146.9,113.1C146.9,113.1,146.9,113.1,146.9,113.1z"></path>
    <path class="st3" d="M398.8,137c-3.2,0.8-4.4,4.1-4.6,7.1c-0.2,3.2,1.4,6.9-0.5,9.8c-1,1.6,1.5,3,2.5,1.5c1.9-3,1-6.5,0.9-9.9
		c-0.1-2,0.2-5.1,2.5-5.8c0.8-0.3,1.2-1.1,0.9-1.8C400.3,137.3,399.6,136.8,398.8,137z"></path>
    <path class="st3" d="M227.1,121.5c-0.3-0.8-0.7-1.5-1.3-2.1c-0.1-0.1-0.2-0.3-0.3-0.4l0,0c0.7-0.3,1.1-1.1,0.9-1.9
		c-0.3-0.7-1.1-1.1-1.9-0.9l0,0c-1,0.2-1.7,1-1.9,2c-0.2,1,0.1,2.1,0.8,2.9c0.5,0.7,1.1,1.2,0.7,2.2c-0.4,0.8-1,1.5-1.8,2
		c-1.5,1.3-3,2.9-2.8,5c0.1,1.9,1.7,3.4,3.6,3.4c0.1,0,0.2,0,0.4,0c0.8-0.2,1.2-1,1-1.8c-0.2-0.7-1-1.2-1.8-1c0.2,0,0.1,0,0.1,0
		c-0.1-0.1-0.2-0.2-0.2-0.4c-0.2-0.4-0.1-0.9,0.1-1.2c0.7-1.3,2.1-2.1,3-3.2C227,124.9,227.5,123.2,227.1,121.5z"></path>
    <path class="st3" d="M80,143.8c-0.8-1.1-1.6-2.3-2.2-3.6c-0.8-2.2-0.1-4.7,1.7-6.2c0.7-0.4,0.9-1.3,0.5-2c-0.4-0.7-1.3-0.9-2-0.5
		c-2.5,1.9-3.8,4.9-3.4,8c0.2,1.5,0.9,3,1.8,4.2c0.7,1,1.9,2.3,1.4,3.6c-0.2,0.8,0.2,1.6,1,1.8c0.8,0.2,1.6-0.2,1.8-1
		C81,146.7,80.8,145.1,80,143.8z"></path>
    <path class="st3"
      d="M78.3,189.6c-0.6,0-1.2-0.1-1.8-0.2c-0.3-0.1-0.6-0.1-0.9-0.2c-0.2-0.1-0.4-0.2-0.6-0.3c-0.1-0.1-0.1-0.1,0,0
		l-0.2-0.1c0,0-0.3-0.4-0.2-0.2c-0.2-0.2-0.3-0.5-0.3-0.8c-0.1-0.8-0.4-1.6-0.8-2.2c-1.9-2.6-5.5-1.5-7.9-0.3
		c-0.7,0.4-0.9,1.3-0.4,2c0.4,0.6,1.2,0.9,1.9,0.5c0.5-0.3,1-0.5,1.5-0.6c0.5-0.2,1-0.3,1.5-0.3h0.3l0.3,0.1h0.1l0.2,0.1
		c0.1,0.1,0.2,0.2,0.1,0c0.1,0.1,0.1,0.2,0.2,0.3c0.1,0.4,0.2,0.8,0.3,1.2c0.8,3.2,4,3.9,6.8,4C80.1,192.6,80.1,189.7,78.3,189.6z"></path>
    <path class="st3" d="M269.6,176l-8-1.8c-1.7-4.3-6.5-6.3-10.7-4.7c-0.1,0-0.2,0.1-0.3,0.1c-0.7,0.4-0.9,1.3-0.5,2
		c0.4,0.7,1.3,0.9,2,0.5c2.8-1.3,6.3,0.8,6.9,3.7c0.1,0.5,0.5,0.9,1,1l8.8,1.9C270.6,179.2,271.4,176.4,269.6,176z">
    </path>
    <path class="st3" d="M418.9,348.7l-2.1,0.5c-2.3-4.1-7.1-6.2-11.7-5.2c-1.8,0.5-1,3.2,0.8,2.8c3.6-0.8,7.3,1,8.8,4.4
		c0.2,0.8,1,1.2,1.8,1l3.3-0.7C421.5,351.1,420.7,348.3,418.9,348.7z"></path>
    <path class="st3" d="M71.2,350.8c-1-1.3-3-1-4.1,0c-0.7,0.7-1.2,1.8-1.1,2.8c-1.8,0-3.6-0.2-5.3-0.8c-0.8-0.2-1.6,0.2-1.8,1
		c-0.2,0.8,0.2,1.6,1,1.8c2.4,0.8,5,1.1,7.6,0.8c0.7-0.1,1.5-0.6,1.5-1.5c-0.1-0.4-0.1-0.9-0.1-1.3c0-0.1,0-0.2,0-0.3
		c0,0,0-0.1,0-0.1s0-0.2,0.1-0.3l0,0c0,0.1,0,0,0,0v-0.1l0,0h0.1c0.6,0.5,1.4,0.5,2,0C71.7,352.4,71.8,351.5,71.2,350.8
		C71.2,350.8,71.2,350.8,71.2,350.8z"></path>
    <path class="st3" d="M344.1,104c-1.5,0.9-3.2,0.3-4.8-0.3c-1.5-0.7-3-1.3-4.6-1.8c-2.9-0.5-6.5,0-7.4,3.3c-0.2,0.8,0.3,1.6,1.1,1.7
		c0.7,0.1,1.4-0.3,1.7-1c0.2-0.8,0.9-1.2,1.8-1.3c1.2-0.1,2.5,0.1,3.6,0.6c3.1,1.3,6.6,3.3,9.9,1.3C347.2,105.5,345.7,103,344.1,104
		z"></path>
    <path class="st3" d="M264,120.1c-0.1-0.2-0.2-0.3-0.3-0.5l-0.3-0.2c-0.2-0.1-0.5-0.2-0.7-0.2h-0.4c-0.2,0.1-0.5,0.2-0.6,0.4
		c-0.3,0.3-0.5,0.5-0.8,0.8c-0.1,0.1-0.3,0.3-0.3,0.5c-0.1,0.2-0.1,0.4-0.1,0.6c0,0.2,0,0.4,0.1,0.6c0.1,0.2,0.2,0.3,0.3,0.5
		l0.3,0.2c0.2,0.1,0.5,0.2,0.7,0.2h0.4c0.2-0.1,0.5-0.2,0.6-0.4l0.8-0.8c0.1-0.1,0.2-0.3,0.3-0.5c0.1-0.2,0.1-0.4,0.1-0.6
		C264.1,120.5,264.1,120.3,264,120.1z"></path>
    <path class="st3" d="M199.3,85.7c-0.1-0.4-0.4-0.6-0.8-0.8c-0.2-0.1-0.4-0.1-0.6-0.1l-0.4,0.1c-0.2,0.1-0.5,0.2-0.6,0.4l-0.2,0.3
		c-0.1,0.2-0.2,0.5-0.2,0.7V87c0,0.2,0,0.4,0.1,0.6c0.1,0.4,0.4,0.6,0.8,0.8c0.2,0.1,0.4,0.1,0.6,0.1l0.4-0.1
		c0.2-0.1,0.5-0.2,0.6-0.4l0.2-0.3c0.1-0.2,0.2-0.5,0.2-0.7v-0.8C199.4,86,199.4,85.8,199.3,85.7z"></path>
    <path class="st3" d="M447.7,248.1c-0.1-0.2-0.2-0.5-0.4-0.6l-0.3-0.2c-0.2-0.1-0.5-0.2-0.7-0.2h-0.8c-0.2,0-0.4,0-0.6,0.1
		c-0.2,0.1-0.3,0.2-0.5,0.3c-0.1,0.1-0.2,0.3-0.3,0.5c-0.1,0.2-0.1,0.4-0.1,0.6l0,0.4c0.1,0.2,0.2,0.5,0.4,0.6l0.3,0.2
		c0.2,0.1,0.5,0.2,0.7,0.2h0.8c0.2,0,0.4,0,0.6-0.1c0.2-0.1,0.3-0.2,0.5-0.3c0.1-0.1,0.2-0.3,0.3-0.5c0.1-0.2,0.1-0.4,0.1-0.6
		L447.7,248.1z"></path>
    <path class="st3" d="M239.8,188c-0.8,0.1-1.4,0.8-1.3,1.6c0.1,0.7,0.6,1.3,1.3,1.3c0.8-0.1,1.4-0.8,1.3-1.6
		C241,188.6,240.5,188.1,239.8,188z"></path>
    <path class="st3" d="M96.3,165.9c-0.8,0.1-1.4,0.8-1.3,1.6c0.1,0.7,0.6,1.3,1.3,1.3c0.8-0.1,1.4-0.8,1.3-1.6
		C97.6,166.5,97,166,96.3,165.9z"></path>
    <path class="st3" d="M55,220.1c-0.1-0.2-0.2-0.3-0.3-0.5c-0.1-0.1-0.3-0.2-0.5-0.3c-0.2-0.1-0.4-0.1-0.6-0.1c-0.4,0-0.7,0.2-1,0.4
		c-0.3,0.3-0.4,0.6-0.4,1v1.6c0,0.2,0,0.4,0.1,0.6c0.1,0.2,0.2,0.3,0.3,0.5c0.1,0.1,0.3,0.2,0.5,0.3c0.2,0.1,0.4,0.1,0.6,0.1
		c0.4,0,0.7-0.2,1-0.4c0.3-0.3,0.4-0.6,0.4-1v-1.6C55.1,220.4,55.1,220.2,55,220.1z"></path>
  </g>
</svg>
